<svg width="1200" height="737" viewBox="0 0 1200 737" fill="none" xmlns="http://www.w3.org/2000/svg">
<g clip-path="url(#clip0_119_602)">
<mask id="mask0_119_602" style="mask-type:luminance" maskUnits="userSpaceOnUse" x="0" y="0" width="1200" height="737">
<path d="M1200 737H0V0H1200V5.75714V11.5142V17.2714V23.0327V28.7898V34.5469V40.3041V46.0612V51.8183V57.5797V63.3367V69.0939V74.851V80.6081V86.3652V92.1266V97.8837V103.641V109.398V115.155V120.912V126.674V132.431V138.188V143.945V149.702V155.459V161.22V166.978V172.735V178.492V184.249V190.006V195.767V201.525V207.282V213.039V218.796V224.553V230.314V236.071V241.829V247.586V253.343V259.1V264.861V270.618V276.376V282.133V287.89V293.647V299.408V305.165V310.922V316.68V322.438V328.196V333.953V339.711V345.469V351.227V356.984V362.742V368.5V374.258V380.016V385.773V391.531V397.289V403.047V408.805V414.563V420.32V426.078V431.835V437.596V443.353V449.11V454.867V460.624V466.382V472.143V477.9V483.657V489.414V495.171V500.929V506.686V512.447V518.204V523.961V529.718V535.475V541.233V546.994V552.751V558.508V564.265V570.022V575.78V581.541V587.298V593.055V598.812V604.569V610.326V616.088V621.845V627.602V633.359V639.116V644.873V650.635V656.392V662.149V667.906V673.663V679.42V685.182V690.939V696.696V702.453V708.21V713.967V719.729V725.486V731.243V737Z" fill="white"/>
</mask>
<g mask="url(#mask0_119_602)">
<path d="M-140.32 752.484H-129.244H-118.169H-107.094H-96.0186H-84.9431H-73.8677H-62.7921H-51.7167H-40.6415H-29.5661H-18.4907H-7.41553H3.6599H14.7353H25.8107H36.886H47.9613H59.0366H70.1121H81.1879H92.2633H103.339H114.413H125.489H136.564H147.64H158.715H169.791H180.866H191.942H203.016H214.092H225.167H236.243H247.318H258.394H269.469H280.544H291.62H302.695H313.77H324.845H335.921H346.996H358.072H369.147H380.223H391.298H402.374H413.449H424.524H435.599H446.675H457.75H468.827H479.899H490.974H502.05H513.127H524.202H535.278H546.354H557.43H568.506H579.577H590.653H601.729H612.805H623.88H634.957H646.033H657.108H668.184H679.255H690.332H701.407H712.483H723.559H734.635H745.708H756.788H767.86H778.933H790.013H801.085H812.165H823.238H834.31H845.39H856.463H867.535H878.615H889.687H900.767H911.84H922.92H933.992H945.065H956.145H967.217H978.29H989.369H1000.44H1011.52H1022.59H1033.67H1044.75H1055.82H1066.89H1077.97H1089.04H1100.12H1111.2H1122.28H1133.35H1144.42H1155.5H1166.57H1177.65H1188.73H1199.8H1210.88H1221.95H1233.03H1244.1H1255.18H1266.25H1277.33V746.442V740.396V734.353V728.311V722.265V716.222V710.18V704.134V698.091V692.049V686.007V679.961V673.918V667.876V661.83V655.788V649.745V643.699V637.656V631.614V625.572V619.525V613.484V607.441V601.395V595.353V589.31V583.264V577.221V571.179V565.133V559.09V553.049V547.006V540.96V534.918V528.875V522.829V516.786V510.744V504.698V498.656V492.614V486.567V480.525V474.483V468.44V462.394V456.352V450.309V444.263V438.221V432.179V426.132V420.09V414.047V408.003V401.96V395.917V389.873V383.829V377.786V371.742V365.698V359.655V353.611V347.568V341.525V335.481V329.437V323.394V317.351V311.307V305.263V299.22V293.176V287.133V281.089V275.045V269.002V262.959V256.915V250.871V244.828V238.785V232.741V226.698V220.654V214.61V208.567V202.524V196.48V190.436V184.393V178.35V172.306V166.262V160.218V154.175V148.132V142.088V136.045V130.001V123.958V117.915V111.871V105.826V99.7835V93.7398V87.696V81.653V75.6093V69.5656V63.5226V57.4796V51.4366V45.3935V39.3506V33.3075V27.2645V21.2147V15.1717V9.12863V3.08566V-2.95737V-9.0004V-15.0434V-21.0865H1266.25H1255.18H1244.1H1233.03H1221.95H1210.88H1199.8H1188.73H1177.65H1166.57H1155.5H1144.42H1133.35H1122.28H1111.2H1100.12H1089.04H1077.97H1066.89H1055.82H1044.75H1033.67H1022.59H1011.52H1000.44H989.369H978.29H967.217H956.145H945.065H933.992H922.92H911.84H900.767H889.687H878.615H867.535H856.463H845.39H834.31H823.238H812.165H801.085H790.013H778.933H767.86H756.788H745.708H734.635H723.559H712.483H701.407H690.332H679.255H668.184H657.108H646.033H634.957H623.88H612.805H601.729H590.653H579.577H568.506H557.43H546.354H535.278H524.202H513.127H502.05H490.974H479.899H468.827H457.75H446.675H435.599H424.524H413.449H402.374H391.298H380.223H369.147H358.072H346.996H335.921H324.845H313.77H302.695H291.62H280.544H269.469H258.394H247.318H236.243H225.167H214.092H203.016H191.942H180.866H169.791H158.715H147.64H136.564H125.489H114.413H103.339H92.2633H81.1879H70.1121H59.0366H47.9613H36.886H25.8107H14.7353H3.6599H-7.41553H-18.4907H-29.5661H-40.6415H-51.7167H-62.7921H-73.8677H-84.9431H-96.0186H-107.094H-118.169H-129.244H-140.32V-15.0434V-9.0004V-2.95737V3.08566V9.12863V15.1717V21.2147V27.2645V33.3075V39.3506V45.3935V51.4366V57.4796V63.5226V69.5656V75.6093V81.653V87.696V93.7398V99.7835V105.826V111.871V117.915V123.958V130.001V136.045V142.088V148.132V154.175V160.218V166.262V172.306V178.35V184.393V190.436V196.48V202.524V208.567V214.61V220.654V226.698V232.741V238.785V244.828V250.871V256.915V262.959V269.002V275.045V281.089V287.133V293.176V299.22V305.263V311.307V317.351V323.394V329.437V335.481V341.525V347.568V353.611V359.655V365.698V371.742V377.786V383.829V389.873V395.917V401.96V408.003V414.047V420.09V426.132V432.179V438.221V444.263V450.309V456.352V462.394V468.44V474.483V480.525V486.567V492.614V498.656V504.698V510.744V516.786V522.829V528.875V534.918V540.96V547.006V553.049V559.09V565.133V571.179V577.221V583.264V589.31V595.353V601.395V607.441V613.484V619.525V625.572V631.614V637.656V643.699V649.745V655.788V661.83V667.876V673.918V679.961V686.007V692.049V698.091V704.134V710.18V716.222V722.265V728.311V734.353V740.396V746.442V752.484ZM1283.31 757.99H1272.14H1260.97H1249.8H1238.63H1227.47H1216.29H1205.12H1193.95H1182.78H1171.62H1160.45H1149.28H1138.11H1126.94H1115.78H1104.6H1093.43H1082.26H1071.1H1059.93H1048.76H1037.59H1026.42H1015.25H1004.09H992.911H981.742H970.574H959.406H948.238H937.069H925.901H914.733H903.565H892.397H881.229H870.06H858.892H847.724H836.556H825.387H814.219H803.051H791.883H780.707H769.539H758.371H747.203H736.034H724.866H713.698H702.53H691.362H680.193H669.02H657.852H646.684H635.515H624.347H613.179H602.011H590.842H579.674H568.506H557.333H546.164H534.996H523.828H512.66H501.492H490.323H479.155H467.986H456.817H445.648H434.479H423.31H412.141H400.973H389.804H378.635H367.467H356.298H345.129H333.96H322.791H311.623H300.454H289.285H278.116H266.947H255.779H244.61H233.441H222.272H211.104H199.935H188.766H177.598H166.429H155.26H144.091H132.923H121.754H110.585H99.4162H88.248H77.0791H65.9104H54.7417H43.5729H32.4042H21.2354H10.0667H-1.10197H-12.2709H-23.4395H-34.6082H-45.777H-56.9457H-68.1143H-79.2832H-90.4522H-101.62H-112.789H-123.958H-135.126H-146.295V751.859V745.731V739.6V733.472V727.341V721.214V715.082V708.955V702.823V696.696V690.564V684.433V678.305V672.174V666.046V659.915V653.787V647.656V641.528V635.397V629.269V623.138V617.011V610.879V604.752V598.62V592.493V586.361V580.234V574.102V567.975V561.844V555.716V549.585V543.453V537.326V531.194V525.067V518.935V512.808V506.676V500.549V494.418V488.29V482.159V476.032V469.9V463.773V457.641V451.514V445.382V439.255V433.123V426.996V420.865V414.735V408.606V402.476V396.346V390.217V384.087V377.958V371.828V365.698V359.569V353.439V347.31V341.18V335.051V328.921V322.792V316.662V310.532V304.403V298.273V292.144V286.014V279.885V273.755V267.626V261.496V255.367V249.237V243.108V236.978V230.849V224.719V218.59V212.46V206.331V200.201V194.072V187.942V181.813V175.683V169.553V163.424V157.294V151.165V145.035V138.906V132.776V126.647V120.517V114.387V108.258V102.128V95.999V89.8691V83.7393V77.6101V71.4803V65.3511V59.2213V53.0915V46.9603V40.8358V34.7047V28.5735V22.4424V16.3178V10.1867V4.05551V-2.07565V-8.20688V-14.3313V-20.4625V-26.5937H-135.126H-123.958H-112.789H-101.62H-90.4522H-79.2832H-68.1143H-56.9457H-45.777H-34.6082H-23.4395H-12.2709H-1.10197H10.0667H21.2354H32.4042H43.5729H54.7417H65.9104H77.0791H88.248H99.4162H110.585H121.754H132.923H144.091H155.26H166.429H177.598H188.766H199.935H211.104H222.272H233.441H244.61H255.779H266.947H278.116H289.285H300.454H311.623H322.791H333.96H345.129H356.298H367.467H378.635H389.804H400.973H412.141H423.31H434.479H445.648H456.817H467.986H479.155H490.323H501.492H512.66H523.828H534.996H546.164H557.333H568.506H579.674H590.842H602.011H613.179H624.347H635.515H646.684H657.852H669.02H680.193H691.362H702.53H713.698H724.866H736.034H747.203H758.371H769.539H780.707H791.883H803.051H814.219H825.387H836.556H847.724H858.892H870.06H881.229H892.397H903.565H914.733H925.901H937.069H948.238H959.406H970.574H981.742H992.911H1004.09H1015.25H1026.42H1037.59H1048.76H1059.93H1071.1H1082.26H1093.43H1104.6H1115.78H1126.94H1138.11H1149.28H1160.45H1171.62H1182.78H1193.95H1205.12H1216.29H1227.47H1238.63H1249.8H1260.97H1272.14H1283.31V-20.4625V-14.3313V-8.20688V-2.07565V4.05551V10.1867V16.3178V22.4424V28.5735V34.7047V40.8358V46.9603V53.0915V59.2213V65.3511V71.4803V77.6101V83.7393V89.8691V95.999V102.128V108.258V114.387V120.517V126.647V132.776V138.906V145.035V151.165V157.294V163.424V169.553V175.683V181.813V187.942V194.072V200.201V206.331V212.46V218.59V224.719V230.849V236.978V243.108V249.237V255.367V261.496V267.626V273.755V279.885V286.014V292.144V298.273V304.403V310.532V316.662V322.792V328.921V335.051V341.18V347.31V353.439V359.569V365.698V371.828V377.958V384.087V390.217V396.346V402.476V408.606V414.735V420.865V426.996V433.123V439.255V445.382V451.514V457.641V463.773V469.9V476.032V482.159V488.29V494.418V500.549V506.676V512.808V518.935V525.067V531.194V537.326V543.453V549.585V555.716V561.844V567.975V574.102V580.234V586.361V592.493V598.62V604.752V610.879V617.011V623.138V629.269V635.397V641.528V647.656V653.787V659.915V666.046V672.174V678.305V684.433V690.564V696.696V702.823V708.955V715.082V721.214V727.341V733.472V739.6V745.731V751.859V757.99Z" fill="#315AA6" fill-opacity="0.3"/>
<path d="M1280.32 567.35H1269.19H1258.07H1246.94H1235.83H1224.7H1213.58H1202.46H1191.34H1180.22H1169.09H1157.97H1146.85H1135.73H1124.6H1113.49H1102.36H1091.24H1080.11H1069H1057.87H1046.75H1035.62H1024.51H1013.38H1002.26H991.144H980.02H968.896H957.771H946.655H935.531H924.407H913.283H902.166H891.042H879.918H868.794H857.677H846.553H835.429H824.312H813.188H802.064H790.94H779.824H768.7H757.576H746.452H735.333H724.21H713.088H701.966H690.844H679.727H668.605H657.482H646.36H635.238H624.116H612.994H601.872H590.75H579.628H568.506H557.383H546.262H535.14H524.017H512.895H501.773H490.651H479.529H468.407H457.283H446.161H435.039H423.917H412.795H401.673H390.551H379.429H368.306H357.185H346.063H334.94H323.818H312.697H301.574H290.452H279.33H268.208H257.086H245.964H234.842H223.72H212.598H201.476H190.354H179.232H168.11H156.987H145.866H134.744H123.621H112.499H101.377H90.2549H79.1331H68.011H56.8889H45.767H34.6451H23.5229H12.4008H1.27888H-9.84322H-20.9652H-32.0873H-43.2094H-54.3313H-65.4535H-76.5754H-87.698H-98.8198H-109.942H-121.064H-132.186H-143.308V567.239V567.133V567.026V566.92V566.809V566.703V566.597V566.491V566.379V566.274V566.167V566.061V565.95V565.844V565.737V565.626V565.52V565.414V565.308V565.196V565.09V564.984V564.878V564.767V564.661V564.554V564.448V564.337V564.231V564.124V564.014V563.907V563.801V563.695V563.584V563.478V563.371V563.265V563.154V563.048V562.941V562.831V562.724V562.619V562.512V562.401V562.295V562.189V562.082V561.972V561.865V561.759V561.652V561.542V561.435V561.329V561.218V561.112V561.006V560.899V560.789V560.682V560.576V560.469V560.359V560.252V560.146V560.04V559.929V559.823V559.716V559.606V559.499V559.393V559.286V559.176V559.069V558.963V558.856V558.746V558.64V558.534V558.422V558.317V558.21V558.104V557.993V557.887V557.78V557.674V557.563V557.457V557.351V557.244V557.133V557.027V556.921V556.81V556.704V556.597V556.491V556.38V556.274V556.167V556.061V555.951V555.844V555.738V555.631V555.521V555.414V555.308V555.197V555.091V554.984V554.878V554.767V554.662V554.555V554.449V554.338V554.232V554.125V554.015V553.908V553.802V553.695V553.585H-132.186H-121.064H-109.942H-98.8198H-87.698H-76.5754H-65.4535H-54.3313H-43.2094H-32.0873H-20.9652H-9.84322H1.27888H12.4008H23.5229H34.6451H45.767H56.8889H68.011H79.1331H90.2549H101.377H112.499H123.621H134.744H145.866H156.987H168.11H179.232H190.354H201.476H212.598H223.72H234.842H245.964H257.086H268.208H279.33H290.452H301.574H312.697H323.818H334.94H346.063H357.185H368.306H379.429H390.551H401.673H412.795H423.917H435.039H446.161H457.283H468.407H479.529H490.651H501.773H512.895H524.017H535.14H546.262H557.383H568.506H579.628H590.75H601.872H612.994H624.116H635.238H646.36H657.482H668.605H679.727H690.844H701.966H713.088H724.21H735.333H746.452H757.576H768.7H779.824H790.94H802.064H813.188H824.312H835.429H846.553H857.677H868.794H879.918H891.042H902.166H913.283H924.407H935.531H946.655H957.771H968.896H980.02H991.144H1002.26H1013.38H1024.51H1035.62H1046.75H1057.87H1069H1080.11H1091.24H1102.36H1113.49H1124.6H1135.73H1146.85H1157.97H1169.09H1180.22H1191.34H1202.46H1213.58H1224.7H1235.83H1246.94H1258.07H1269.19H1280.32V553.695V553.802V553.908V554.015V554.125V554.232V554.338V554.449V554.555V554.662V554.767V554.878V554.984V555.091V555.197V555.308V555.414V555.521V555.631V555.738V555.844V555.951V556.061V556.167V556.274V556.38V556.491V556.597V556.704V556.81V556.921V557.027V557.133V557.244V557.351V557.457V557.563V557.674V557.78V557.887V557.993V558.104V558.21V558.317V558.422V558.534V558.64V558.746V558.856V558.963V559.069V559.176V559.286V559.393V559.499V559.606V559.716V559.823V559.929V560.04V560.146V560.252V560.359V560.469V560.576V560.682V560.789V560.899V561.006V561.112V561.218V561.329V561.435V561.542V561.652V561.759V561.865V561.972V562.082V562.189V562.295V562.401V562.512V562.619V562.724V562.831V562.941V563.048V563.154V563.265V563.371V563.478V563.584V563.695V563.801V563.907V564.014V564.124V564.231V564.337V564.448V564.554V564.661V564.767V564.878V564.984V565.09V565.196V565.308V565.414V565.52V565.626V565.737V565.844V565.95V566.061V566.167V566.274V566.379V566.491V566.597V566.703V566.809V566.92V567.026V567.133V567.239V567.35Z" fill="#315AA6" fill-opacity="0.3"/>
<path d="M1280.32 368.451H1269.19H1258.07H1246.94H1235.83H1224.7H1213.58H1202.46H1191.34H1180.22H1169.09H1157.97H1146.85H1135.73H1124.6H1113.49H1102.36H1091.24H1080.11H1069H1057.87H1046.75H1035.62H1024.51H1013.38H1002.26H991.144H980.02H968.896H957.771H946.655H935.531H924.407H913.283H902.166H891.042H879.918H868.794H857.677H846.553H835.429H824.312H813.188H802.064H790.94H779.824H768.7H757.576H746.452H735.333H724.21H713.088H701.966H690.844H679.727H668.605H657.482H646.36H635.238H624.116H612.994H601.872H590.75H579.628H568.506H557.383H546.262H535.14H524.017H512.895H501.773H490.651H479.529H468.407H457.283H446.161H435.039H423.917H412.795H401.673H390.551H379.429H368.306H357.185H346.063H334.94H323.818H312.697H301.574H290.452H279.33H268.208H257.086H245.964H234.842H223.72H212.598H201.476H190.354H179.232H168.11H156.987H145.866H134.744H123.621H112.499H101.377H90.2549H79.1331H68.011H56.8889H45.767H34.6451H23.5229H12.4008H1.27888H-9.84322H-20.9652H-32.0873H-43.2094H-54.3313H-65.4535H-76.5754H-87.698H-98.8198H-109.942H-121.064H-132.186H-143.308V368.408V368.365V368.322V368.279V368.236V368.193V368.15V368.107V368.065V368.021V367.978V367.935V367.892V367.849V367.806V367.763V367.72V367.677V367.634V367.591V367.548V367.505V367.462V367.419V367.375V367.333V367.29V367.247V367.204V367.161V367.118V367.075V367.032V366.989V366.946V366.903V366.86V366.817V366.774V366.731V366.688V366.645V366.602V366.559V366.516V366.473V366.43V366.387V366.344V366.3V366.258V366.214V366.172V366.129V366.085V366.043V366V365.957V365.914V365.871V365.828V365.785V365.742V365.698V365.655V365.613V365.569V365.527V365.484V365.44V365.398V365.354V365.312V365.269V365.225V365.183V365.139V365.097V365.053V365.01V364.968V364.924V364.882V364.838V364.795V364.753V364.71V364.666V364.623V364.58V364.537V364.494V364.452V364.408V364.365V364.323V364.279V364.237V364.193V364.15V364.107V364.064V364.021V363.978V363.935V363.892V363.849V363.807V363.763V363.72V363.677V363.634V363.591V363.548V363.505V363.462V363.419V363.376V363.333V363.29V363.247V363.204V363.161V363.118V363.075V363.032V362.989V362.946H-132.186H-121.064H-109.942H-98.8198H-87.698H-76.5754H-65.4535H-54.3313H-43.2094H-32.0873H-20.9652H-9.84322H1.27888H12.4008H23.5229H34.6451H45.767H56.8889H68.011H79.1331H90.2549H101.377H112.499H123.621H134.744H145.866H156.987H168.11H179.232H190.354H201.476H212.598H223.72H234.842H245.964H257.086H268.208H279.33H290.452H301.574H312.697H323.818H334.94H346.063H357.185H368.306H379.429H390.551H401.673H412.795H423.917H435.039H446.161H457.283H468.407H479.529H490.651H501.773H512.895H524.017H535.14H546.262H557.383H568.506H579.628H590.75H601.872H612.994H624.116H635.238H646.36H657.482H668.605H679.727H690.844H701.966H713.088H724.21H735.333H746.452H757.576H768.7H779.824H790.94H802.064H813.188H824.312H835.429H846.553H857.677H868.794H879.918H891.042H902.166H913.283H924.407H935.531H946.655H957.771H968.896H980.02H991.144H1002.26H1013.38H1024.51H1035.62H1046.75H1057.87H1069H1080.11H1091.24H1102.36H1113.49H1124.6H1135.73H1146.85H1157.97H1169.09H1180.22H1191.34H1202.46H1213.58H1224.7H1235.83H1246.94H1258.07H1269.19H1280.32V362.989V363.032V363.075V363.118V363.161V363.204V363.247V363.29V363.333V363.376V363.419V363.462V363.505V363.548V363.591V363.634V363.677V363.72V363.763V363.807V363.849V363.892V363.935V363.978V364.021V364.064V364.107V364.15V364.193V364.237V364.279V364.323V364.365V364.408V364.452V364.494V364.537V364.58V364.623V364.666V364.71V364.753V364.795V364.838V364.882V364.924V364.968V365.01V365.053V365.097V365.139V365.183V365.225V365.269V365.312V365.354V365.398V365.44V365.484V365.527V365.569V365.613V365.655V365.698V365.742V365.785V365.828V365.871V365.914V365.957V366V366.043V366.085V366.129V366.172V366.214V366.258V366.3V366.344V366.387V366.43V366.473V366.516V366.559V366.602V366.645V366.688V366.731V366.774V366.817V366.86V366.903V366.946V366.989V367.032V367.075V367.118V367.161V367.204V367.247V367.29V367.333V367.375V367.419V367.462V367.505V367.548V367.591V367.634V367.677V367.72V367.763V367.806V367.849V367.892V367.935V367.978V368.021V368.065V368.107V368.15V368.193V368.236V368.279V368.322V368.365V368.408V368.451Z" fill="#315AA6" fill-opacity="0.3"/>
<path d="M1280.32 252.763H1269.19H1258.07H1246.94H1235.83H1224.7H1213.58H1202.46H1191.34H1180.22H1169.09H1157.97H1146.85H1135.73H1124.6H1113.49H1102.36H1091.24H1080.11H1069H1057.87H1046.75H1035.62H1024.51H1013.38H1002.26H991.144H980.02H968.896H957.771H946.655H935.531H924.407H913.283H902.166H891.042H879.918H868.794H857.677H846.553H835.429H824.312H813.188H802.064H790.94H779.824H768.7H757.576H746.452H735.333H724.21H713.088H701.966H690.844H679.727H668.605H657.482H646.36H635.238H624.116H612.994H601.872H590.75H579.628H568.506H557.383H546.262H535.14H524.017H512.895H501.773H490.651H479.529H468.407H457.283H446.161H435.039H423.917H412.795H401.673H390.551H379.429H368.306H357.185H346.063H334.94H323.818H312.697H301.574H290.452H279.33H268.208H257.086H245.964H234.842H223.72H212.598H201.476H190.354H179.232H168.11H156.987H145.866H134.744H123.621H112.499H101.377H90.2549H79.1331H68.011H56.8889H45.767H34.6451H23.5229H12.4008H1.27888H-9.84322H-20.9652H-32.0873H-43.2094H-54.3313H-65.4535H-76.5754H-87.698H-98.8198H-109.942H-121.064H-132.186H-143.308V252.655V252.547V252.44V252.333V252.225V252.117V252.01V251.902V251.794V251.687V251.58V251.472V251.365V251.257V251.149V251.042V250.935V250.827V250.719V250.612V250.504V250.397V250.29V250.182V250.074V249.967V249.859V249.752V249.644V249.537V249.429V249.322V249.214V249.106V248.999V248.892V248.784V248.676V248.569V248.461V248.354V248.246V248.139V248.031V247.924V247.816V247.708V247.601V247.494V247.386V247.279V247.171V247.063V246.956V246.848V246.741V246.633V246.526V246.418V246.311V246.203V246.096V245.988V245.881V245.773V245.666V245.558V245.451V245.343V245.236V245.128V245.021V244.913V244.806V244.698V244.591V244.483V244.376V244.268V244.161V244.053V243.946V243.838V243.731V243.623V243.516V243.408V243.301V243.193V243.086V242.978V242.871V242.763V242.656V242.548V242.441V242.333V242.225V242.118V242.011V241.903V241.796V241.688V241.58V241.473V241.366V241.258V241.151V241.043V240.935V240.828V240.72V240.613V240.505V240.398V240.29V240.182V240.075V239.967V239.86V239.753V239.645V239.537V239.43V239.322V239.215V239.107V239H-132.186H-121.064H-109.942H-98.8198H-87.698H-76.5754H-65.4535H-54.3313H-43.2094H-32.0873H-20.9652H-9.84322H1.27888H12.4008H23.5229H34.6451H45.767H56.8889H68.011H79.1331H90.2549H101.377H112.499H123.621H134.744H145.866H156.987H168.11H179.232H190.354H201.476H212.598H223.72H234.842H245.964H257.086H268.208H279.33H290.452H301.574H312.697H323.818H334.94H346.063H357.185H368.306H379.429H390.551H401.673H412.795H423.917H435.039H446.161H457.283H468.407H479.529H490.651H501.773H512.895H524.017H535.14H546.262H557.383H568.506H579.628H590.75H601.872H612.994H624.116H635.238H646.36H657.482H668.605H679.727H690.844H701.966H713.088H724.21H735.333H746.452H757.576H768.7H779.824H790.94H802.064H813.188H824.312H835.429H846.553H857.677H868.794H879.918H891.042H902.166H913.283H924.407H935.531H946.655H957.771H968.896H980.02H991.144H1002.26H1013.38H1024.51H1035.62H1046.75H1057.87H1069H1080.11H1091.24H1102.36H1113.49H1124.6H1135.73H1146.85H1157.97H1169.09H1180.22H1191.34H1202.46H1213.58H1224.7H1235.83H1246.94H1258.07H1269.19H1280.32V239.107V239.215V239.322V239.43V239.537V239.645V239.753V239.86V239.967V240.075V240.182V240.29V240.398V240.505V240.613V240.72V240.828V240.935V241.043V241.151V241.258V241.366V241.473V241.58V241.688V241.796V241.903V242.011V242.118V242.225V242.333V242.441V242.548V242.656V242.763V242.871V242.978V243.086V243.193V243.301V243.408V243.516V243.623V243.731V243.838V243.946V244.053V244.161V244.268V244.376V244.483V244.591V244.698V244.806V244.913V245.021V245.128V245.236V245.343V245.451V245.558V245.666V245.773V245.881V245.988V246.096V246.203V246.311V246.418V246.526V246.633V246.741V246.848V246.956V247.063V247.171V247.279V247.386V247.494V247.601V247.708V247.816V247.924V248.031V248.139V248.246V248.354V248.461V248.569V248.676V248.784V248.892V248.999V249.106V249.214V249.322V249.429V249.537V249.644V249.752V249.859V249.967V250.074V250.182V250.29V250.397V250.504V250.612V250.719V250.827V250.935V251.042V251.149V251.257V251.365V251.472V251.58V251.687V251.794V251.902V252.01V252.117V252.225V252.333V252.44V252.547V252.655V252.763Z" fill="#315AA6" fill-opacity="0.3"/>
<path d="M1153.88 755.237H1153.83H1153.79H1153.74H1153.69H1153.65H1153.6H1153.56H1153.51H1153.47H1153.42H1153.37H1153.32H1153.28H1153.23H1153.18H1153.13H1153.09H1153.04H1153H1152.95H1152.9H1152.86H1152.81H1152.76H1152.72H1152.67H1152.62H1152.57H1152.53H1152.48H1152.43H1152.39H1152.34H1152.3H1152.25H1152.21H1152.16H1152.11H1152.06H1152.02H1151.97H1151.92H1151.87H1151.83H1151.78H1151.74H1151.69H1151.65H1151.59H1151.55H1151.5H1151.46H1151.41H1151.36H1151.31H1151.27H1151.22H1151.17H1151.12H1151.08H1151.03H1150.99H1150.94H1150.9H1150.85H1150.8H1150.75H1150.71H1150.66H1150.61H1150.57H1150.52H1150.47H1150.43H1150.38H1150.34H1150.29H1150.24H1150.2H1150.15H1150.1H1150.05H1150.01H1149.96H1149.92H1149.86H1149.82H1149.77H1149.73H1149.68H1149.64H1149.59H1149.54H1149.49H1149.45H1149.4H1149.35H1149.3H1149.26H1149.21H1149.17H1149.12H1149.08H1149.03H1148.98H1148.94H1148.89H1148.84H1148.79H1148.74H1148.7H1148.65H1148.61H1148.56H1148.51H1148.47H1148.42H1148.38H1148.33H1148.28H1148.23H1148.19H1148.14H1148.09H1148.04H1148H1147.95H1147.91V749.148V743.064V736.979V730.89V724.805V718.716V712.631V706.546V700.457V694.373V688.284V682.199V676.11V670.025V663.94V657.851V651.766V645.678V639.593V633.508V627.419V621.334V615.245V609.16V603.075V596.987V590.901V584.813V578.728V572.639V566.554V560.469V554.38V548.295V542.206V536.122V530.037V523.948V517.863V511.774V505.689V499.601V493.515V487.431V481.342V475.257V469.168V463.083V456.998V450.909V444.825V438.735V432.651V426.562V420.478V414.39V408.304V402.218V396.131V390.045V383.958V377.872V371.785V365.698V359.612V353.526V347.439V341.353V335.266V329.179V323.093V317.006V310.92V304.833V298.747V292.66V286.573V280.487V274.401V268.314V262.228V256.141V250.054V243.968V237.881V231.795V225.709V219.622V213.535V207.448V201.362V195.276V189.189V183.102V177.016V170.93V164.843V158.756V152.67V146.584V140.497V134.41V128.324V122.237V116.151V110.064V103.977V97.8908V91.8049V85.7177V79.631V73.5464V67.4553V61.3706V55.2859V49.2013V43.1102V37.0255V30.9409V24.8498V18.7651V12.6805V6.59583V0.504639V-5.57996V-11.6646V-17.7557V-23.8404H1147.95H1148H1148.04H1148.09H1148.14H1148.19H1148.23H1148.28H1148.33H1148.38H1148.42H1148.47H1148.51H1148.56H1148.61H1148.65H1148.7H1148.74H1148.79H1148.84H1148.89H1148.94H1148.98H1149.03H1149.08H1149.12H1149.17H1149.21H1149.26H1149.3H1149.35H1149.4H1149.45H1149.49H1149.54H1149.59H1149.64H1149.68H1149.73H1149.77H1149.82H1149.86H1149.92H1149.96H1150.01H1150.05H1150.1H1150.15H1150.2H1150.24H1150.29H1150.34H1150.38H1150.43H1150.47H1150.52H1150.57H1150.61H1150.66H1150.71H1150.75H1150.8H1150.85H1150.9H1150.94H1150.99H1151.03H1151.08H1151.12H1151.17H1151.22H1151.27H1151.31H1151.36H1151.41H1151.46H1151.5H1151.55H1151.59H1151.65H1151.69H1151.74H1151.78H1151.83H1151.87H1151.92H1151.97H1152.02H1152.06H1152.11H1152.16H1152.21H1152.25H1152.3H1152.34H1152.39H1152.43H1152.48H1152.53H1152.57H1152.62H1152.67H1152.72H1152.76H1152.81H1152.86H1152.9H1152.95H1153H1153.04H1153.09H1153.13H1153.18H1153.23H1153.28H1153.32H1153.37H1153.42H1153.47H1153.51H1153.56H1153.6H1153.65H1153.69H1153.74H1153.79H1153.83H1153.88V-17.7557V-11.6646V-5.57996V0.504639V6.59583V12.6805V18.7651V24.8498V30.9409V37.0255V43.1102V49.2013V55.2859V61.3706V67.4553V73.5464V79.631V85.7177V91.8049V97.8908V103.977V110.064V116.151V122.237V128.324V134.41V140.497V146.584V152.67V158.756V164.843V170.93V177.016V183.102V189.189V195.276V201.362V207.448V213.535V219.622V225.709V231.795V237.881V243.968V250.054V256.141V262.228V268.314V274.401V280.487V286.573V292.66V298.747V304.833V310.92V317.006V323.093V329.179V335.266V341.353V347.439V353.526V359.612V365.698V371.785V377.872V383.958V390.045V396.131V402.218V408.304V414.39V420.478V426.562V432.651V438.735V444.825V450.909V456.998V463.083V469.168V475.257V481.342V487.431V493.515V499.601V505.689V511.774V517.863V523.948V530.037V536.122V542.206V548.295V554.38V560.469V566.554V572.639V578.728V584.813V590.901V596.987V603.075V609.16V615.245V621.334V627.419V633.508V639.593V645.678V651.766V657.851V663.94V670.025V676.11V682.199V688.284V694.373V700.457V706.546V712.631V718.716V724.805V730.89V736.979V743.064V749.148V755.237Z" fill="#315AA6" fill-opacity="0.3"/>
<path d="M1089.18 755.237H1089.13H1089.08H1089.04H1088.99H1088.94H1088.89H1088.85H1088.8H1088.75H1088.71H1088.66H1088.61H1088.57H1088.52H1088.47H1088.43H1088.38H1088.33H1088.29H1088.24H1088.19H1088.15H1088.1H1088.05H1088.01H1087.96H1087.91H1087.87H1087.82H1087.77H1087.73H1087.68H1087.63H1087.59H1087.54H1087.49H1087.44H1087.4H1087.36H1087.3H1087.26H1087.21H1087.16H1087.12H1087.07H1087.03H1086.98H1086.94H1086.88H1086.84H1086.79H1086.74H1086.7H1086.66H1086.61H1086.56H1086.52H1086.46H1086.42H1086.37H1086.33H1086.28H1086.24H1086.19H1086.14H1086.1H1086.04H1085.99H1085.95H1085.91H1085.86H1085.81H1085.77H1085.72H1085.67H1085.63H1085.58H1085.53H1085.49H1085.44H1085.39H1085.35H1085.3H1085.25H1085.21H1085.16H1085.11H1085.07H1085.02H1084.97H1084.93H1084.88H1084.83H1084.79H1084.74H1084.69H1084.65H1084.6H1084.55H1084.5H1084.46H1084.41H1084.36H1084.32H1084.27H1084.22H1084.18H1084.13H1084.08H1084.04H1083.99H1083.95H1083.9H1083.85H1083.8H1083.76H1083.71H1083.66H1083.62H1083.58H1083.53H1083.48H1083.43H1083.38H1083.34H1083.29H1083.24H1083.2V749.148V743.064V736.979V730.89V724.805V718.716V712.631V706.546V700.457V694.373V688.284V682.199V676.11V670.025V663.94V657.851V651.766V645.678V639.593V633.508V627.419V621.334V615.245V609.16V603.075V596.987V590.902V584.812V578.728V572.639V566.554V560.47V554.38V548.296V542.206V536.121V530.037V523.948V517.863V511.774V505.689V499.6V493.515V487.431V481.342V475.257V469.168V463.083V456.998V450.909V444.824V438.736V432.651V426.562V420.477V414.39V408.304V402.217V396.131V390.045V383.958V377.871V371.785V365.698V359.612V353.526V347.439V341.352V335.266V329.179V323.092V317.006V310.92V304.833V298.747V292.66V286.573V280.486V274.4V268.314V262.228V256.141V250.054V243.967V237.881V231.794V225.708V219.622V213.535V207.448V201.361V195.275V189.189V183.102V177.016V170.929V164.842V158.756V152.669V146.583V140.497V134.41V128.323V122.237V116.149V110.061V103.979V97.8907V91.8026V85.7144V79.6325V73.5443V67.4562V61.3742V55.286V49.1979V43.1098V37.0277V30.9397V24.8515V18.7634V12.6814V6.59323V0.505096V-5.58304V-11.6651V-17.7531V-23.8413H1083.24H1083.29H1083.34H1083.38H1083.43H1083.48H1083.53H1083.58H1083.62H1083.66H1083.71H1083.76H1083.8H1083.85H1083.9H1083.95H1083.99H1084.04H1084.08H1084.13H1084.18H1084.22H1084.27H1084.32H1084.36H1084.41H1084.46H1084.5H1084.55H1084.6H1084.65H1084.69H1084.74H1084.79H1084.83H1084.88H1084.93H1084.97H1085.02H1085.07H1085.11H1085.16H1085.21H1085.25H1085.3H1085.35H1085.39H1085.44H1085.49H1085.53H1085.58H1085.63H1085.67H1085.72H1085.77H1085.81H1085.86H1085.91H1085.95H1085.99H1086.04H1086.1H1086.14H1086.19H1086.24H1086.28H1086.33H1086.37H1086.42H1086.46H1086.52H1086.56H1086.61H1086.66H1086.7H1086.74H1086.79H1086.84H1086.88H1086.94H1086.98H1087.03H1087.07H1087.12H1087.16H1087.21H1087.26H1087.3H1087.36H1087.4H1087.44H1087.49H1087.54H1087.59H1087.63H1087.68H1087.73H1087.77H1087.82H1087.87H1087.91H1087.96H1088.01H1088.05H1088.1H1088.15H1088.19H1088.24H1088.29H1088.33H1088.38H1088.43H1088.47H1088.52H1088.57H1088.61H1088.66H1088.71H1088.75H1088.8H1088.85H1088.89H1088.94H1088.99H1089.04H1089.08H1089.13H1089.18V-17.7531V-11.6651V-5.58304V0.505096V6.59323V12.6814V18.7634V24.8515V30.9397V37.0277V43.1098V49.1979V55.286V61.3742V67.4562V73.5443V79.6325V85.7144V91.8026V97.8907V103.979V110.061V116.149V122.237V128.323V134.41V140.497V146.583V152.669V158.756V164.842V170.929V177.016V183.102V189.189V195.275V201.361V207.448V213.535V219.622V225.708V231.794V237.881V243.967V250.054V256.141V262.228V268.314V274.4V280.486V286.573V292.66V298.747V304.833V310.92V317.006V323.092V329.179V335.266V341.352V347.439V353.526V359.612V365.698V371.785V377.871V383.958V390.045V396.131V402.217V408.304V414.39V420.477V426.562V432.651V438.736V444.824V450.909V456.998V463.083V469.168V475.257V481.342V487.431V493.515V499.6V505.689V511.774V517.863V523.948V530.037V536.121V542.206V548.296V554.38V560.47V566.554V572.639V578.728V584.812V590.902V596.987V603.075V609.16V615.245V621.334V627.419V633.508V639.593V645.678V651.766V657.851V663.94V670.025V676.11V682.199V688.284V694.373V700.457V706.546V712.631V718.716V724.805V730.89V736.979V743.064V749.148V755.237Z" fill="#315AA6" fill-opacity="0.3"/>
<path d="M1024.46 755.237H1024.42H1024.36H1024.31H1024.27H1024.23H1024.18H1024.13H1024.08H1024.04H1023.99H1023.94H1023.89H1023.85H1023.81H1023.76H1023.71H1023.67H1023.62H1023.57H1023.53H1023.47H1023.43H1023.38H1023.33H1023.29H1023.25H1023.2H1023.15H1023.11H1023.06H1023.01H1022.96H1022.92H1022.87H1022.83H1022.77H1022.73H1022.69H1022.64H1022.59H1022.54H1022.5H1022.45H1022.4H1022.36H1022.31H1022.27H1022.22H1022.17H1022.12H1022.08H1022.03H1021.98H1021.94H1021.89H1021.84H1021.8H1021.75H1021.7H1021.66H1021.61H1021.56H1021.52H1021.47H1021.42H1021.38H1021.33H1021.28H1021.24H1021.19H1021.14H1021.1H1021.05H1021H1020.96H1020.91H1020.86H1020.81H1020.77H1020.72H1020.68H1020.63H1020.58H1020.54H1020.49H1020.44H1020.39H1020.35H1020.3H1020.25H1020.21H1020.17H1020.12H1020.07H1020.02H1019.97H1019.93H1019.88H1019.83H1019.79H1019.75H1019.7H1019.65H1019.6H1019.56H1019.51H1019.46H1019.42H1019.37H1019.32H1019.27H1019.23H1019.18H1019.14H1019.09H1019.04H1019H1018.95H1018.9H1018.86H1018.81H1018.77H1018.71H1018.66H1018.62H1018.58H1018.53H1018.48V749.148V743.063V736.979V730.89V724.805V718.716V712.631V706.547V700.458V694.373V688.284V682.199V676.11V670.026V663.941V657.852V651.767V645.678V639.593V633.509V627.42V621.335V615.246V609.161V603.076V596.988V590.903V584.813V578.729V572.64V566.555V560.471V554.381V548.296V542.208V536.123V530.039V523.949V517.864V511.775V505.691V499.602V493.517V487.432V481.343V475.258V469.17V463.085V457V450.911V444.826V438.737V432.653V426.564V420.48V414.392V408.306V402.219V396.133V390.047V383.96V377.874V371.787V365.701V359.614V353.528V347.441V341.355V335.269V329.181V323.095V317.008V310.922V304.836V298.749V292.663V286.576V280.49V274.403V268.317V262.231V256.144V250.057V243.97V237.884V231.798V225.711V219.625V213.538V207.452V201.365V195.279V189.192V183.105V177.02V170.933V164.846V158.759V152.675V146.589V140.498V134.413V128.327V122.242V116.156V110.065V103.98V97.8945V91.8091V85.7238V79.6326V73.5471V67.4618V61.3764V55.291V49.2057V43.1145V37.0291V30.9437V24.8583V18.7729V12.6818V6.59634V0.511017V-5.57443V-11.6598V-17.7509V-23.8363H1018.53H1018.58H1018.62H1018.66H1018.71H1018.77H1018.81H1018.86H1018.9H1018.95H1019H1019.04H1019.09H1019.14H1019.18H1019.23H1019.27H1019.32H1019.37H1019.42H1019.46H1019.51H1019.56H1019.6H1019.65H1019.7H1019.75H1019.79H1019.83H1019.88H1019.93H1019.97H1020.02H1020.07H1020.12H1020.17H1020.21H1020.25H1020.3H1020.35H1020.39H1020.44H1020.49H1020.54H1020.58H1020.63H1020.68H1020.72H1020.77H1020.81H1020.86H1020.91H1020.96H1021H1021.05H1021.1H1021.14H1021.19H1021.24H1021.28H1021.33H1021.38H1021.42H1021.47H1021.52H1021.56H1021.61H1021.66H1021.7H1021.75H1021.8H1021.84H1021.89H1021.94H1021.98H1022.03H1022.08H1022.12H1022.17H1022.22H1022.27H1022.31H1022.36H1022.4H1022.45H1022.5H1022.54H1022.59H1022.64H1022.69H1022.73H1022.77H1022.83H1022.87H1022.92H1022.96H1023.01H1023.06H1023.11H1023.15H1023.2H1023.25H1023.29H1023.33H1023.38H1023.43H1023.47H1023.53H1023.57H1023.62H1023.67H1023.71H1023.76H1023.81H1023.85H1023.89H1023.94H1023.99H1024.04H1024.08H1024.13H1024.18H1024.23H1024.27H1024.31H1024.36H1024.42H1024.46V-17.7509V-11.6598V-5.57443V0.511017V6.59634V12.6818V18.7729V24.8583V30.9437V37.0291V43.1145V49.2057V55.291V61.3764V67.4618V73.5471V79.6326V85.7238V91.8091V97.8945V103.98V110.065V116.156V122.242V128.327V134.413V140.498V146.589V152.675V158.759V164.846V170.933V177.02V183.105V189.192V195.279V201.365V207.452V213.538V219.625V225.711V231.798V237.884V243.97V250.057V256.144V262.231V268.317V274.403V280.49V286.576V292.663V298.749V304.836V310.922V317.008V323.095V329.181V335.269V341.355V347.441V353.528V359.614V365.701V371.787V377.874V383.96V390.047V396.133V402.219V408.306V414.392V420.48V426.564V432.653V438.737V444.826V450.911V457V463.085V469.17V475.258V481.343V487.432V493.517V499.602V505.691V511.775V517.864V523.949V530.039V536.123V542.208V548.296V554.381V560.471V566.555V572.64V578.729V584.813V590.903V596.988V603.076V609.161V615.246V621.335V627.42V633.509V639.593V645.678V651.767V657.852V663.941V670.026V676.11V682.199V688.284V694.373V700.458V706.547V712.631V718.716V724.805V730.89V736.979V743.063V749.148V755.237Z" fill="#315AA6" fill-opacity="0.3"/>
<path d="M959.751 755.237H959.704H959.657H959.615H959.568H959.521H959.474H959.427H959.38H959.333H959.286H959.238H959.191H959.144H959.097H959.056H959.009H958.962H958.909H958.862H958.82H958.773H958.726H958.679H958.632H958.585H958.538H958.497H958.444H958.397H958.349H958.308H958.261H958.214H958.167H958.12H958.073H958.026H957.978H957.931H957.884H957.837H957.79H957.749H957.702H957.655H957.602H957.555H957.513H957.466H957.419H957.372H957.325H957.278H957.231H957.184H957.136H957.089H957.042H957.001H956.954H956.907H956.86H956.813H956.766H956.718H956.671H956.624H956.577H956.53H956.483H956.442H956.395H956.347H956.294H956.247H956.206H956.159H956.112H956.065H956.018H955.971H955.924H955.876H955.829H955.782H955.735H955.688H955.647H955.6H955.553H955.506H955.458H955.411H955.364H955.317H955.27H955.223H955.176H955.135H955.087H955.04H954.987H954.94H954.899H954.852H954.805H954.758H954.711H954.663H954.622H954.569H954.522H954.475H954.428H954.381H954.34H954.293H954.245H954.198H954.151H954.104H954.057H954.01H953.963H953.916H953.869H953.827H953.78V749.148V743.063V736.979V730.89V724.805V718.716V712.631V706.546V700.457V694.373V688.284V682.199V676.11V670.025V663.94V657.851V651.766V645.678V639.593V633.508V627.419V621.334V615.245V609.16V603.076V596.986V590.902V584.812V578.728V572.639V566.554V560.469V554.38V548.296V542.207V536.122V530.037V523.948V517.863V511.774V505.689V499.6V493.516V487.431V481.342V475.257V469.168V463.084V456.999V450.91V444.825V438.736V432.651V426.562V420.477V414.391V408.304V402.218V396.131V390.045V383.958V377.872V371.785V365.698V359.612V353.526V347.439V341.353V335.266V329.179V323.093V317.007V310.92V304.834V298.747V292.66V286.574V280.487V274.401V268.314V262.228V256.141V250.055V243.968V237.881V231.795V225.708V219.622V213.536V207.448V201.362V195.276V189.191V183.104V177.018V170.932V164.84V158.754V152.668V146.582V140.496V134.41V128.324V122.238V116.151V110.065V103.979V97.893V91.8069V85.7153V79.6291V73.543V67.4568V61.3707V55.2846V49.1985V43.1123V37.0262V30.94V24.8539V18.7677V12.6816V6.59544V0.509323V-5.58223V-11.6684V-17.7545V-23.8407H953.827H953.869H953.916H953.963H954.01H954.057H954.104H954.151H954.198H954.245H954.293H954.34H954.381H954.428H954.475H954.522H954.569H954.622H954.663H954.711H954.758H954.805H954.852H954.899H954.94H954.987H955.04H955.087H955.135H955.176H955.223H955.27H955.317H955.364H955.411H955.458H955.506H955.553H955.6H955.647H955.688H955.735H955.782H955.829H955.876H955.924H955.971H956.018H956.065H956.112H956.159H956.206H956.247H956.294H956.347H956.395H956.442H956.483H956.53H956.577H956.624H956.671H956.718H956.766H956.813H956.86H956.907H956.954H957.001H957.042H957.089H957.136H957.184H957.231H957.278H957.325H957.372H957.419H957.466H957.513H957.555H957.602H957.655H957.702H957.749H957.79H957.837H957.884H957.931H957.978H958.026H958.073H958.12H958.167H958.214H958.261H958.308H958.349H958.397H958.444H958.497H958.538H958.585H958.632H958.679H958.726H958.773H958.82H958.862H958.909H958.962H959.009H959.056H959.097H959.144H959.191H959.238H959.286H959.333H959.38H959.427H959.474H959.521H959.568H959.615H959.657H959.704H959.751V-17.7545V-11.6684V-5.58223V0.509323V6.59544V12.6816V18.7677V24.8539V30.94V37.0262V43.1123V49.1985V55.2846V61.3707V67.4568V73.543V79.6291V85.7153V91.8069V97.893V103.979V110.065V116.151V122.238V128.324V134.41V140.496V146.582V152.668V158.754V164.84V170.932V177.018V183.104V189.191V195.276V201.362V207.448V213.536V219.622V225.708V231.795V237.881V243.968V250.055V256.141V262.228V268.314V274.401V280.487V286.574V292.66V298.747V304.834V310.92V317.007V323.093V329.179V335.266V341.353V347.439V353.526V359.612V365.698V371.785V377.872V383.958V390.045V396.131V402.218V408.304V414.391V420.477V426.562V432.651V438.736V444.825V450.91V456.999V463.084V469.168V475.257V481.342V487.431V493.516V499.6V505.689V511.774V517.863V523.948V530.037V536.122V542.207V548.296V554.38V560.469V566.554V572.639V578.728V584.812V590.902V596.986V603.076V609.16V615.245V621.334V627.419V633.508V639.593V645.678V651.766V657.851V663.94V670.025V676.11V682.199V688.284V694.373V700.457V706.546V712.631V718.716V724.805V730.89V736.979V743.063V749.148V755.237Z" fill="#315AA6" fill-opacity="0.3"/>
<path d="M895.042 755.237H894.998H894.949H894.905H894.855H894.811H894.768H894.718H894.674H894.619H894.575H894.531H894.482H894.438H894.389H894.345H894.301H894.251H894.202H894.158H894.109H894.065H894.015H893.971H893.922H893.878H893.834H893.785H893.735H893.691H893.642H893.598H893.549H893.505H893.461H893.411H893.367H893.312H893.269H893.225H893.175H893.131H893.082H893.038H892.994H892.945H892.895H892.846H892.802H892.758H892.708H892.665H892.615H892.571H892.527H892.472H892.428H892.384H892.335H892.291H892.242H892.198H892.148H892.104H892.055H892.006H891.962H891.918H891.868H891.824H891.775H891.731H891.682H891.638H891.588H891.539H891.495H891.451H891.402H891.358H891.308H891.264H891.22H891.165H891.121H891.072H891.028H890.984H890.935H890.891H890.841H890.798H890.748H890.699H890.655H890.605H890.561H890.517H890.468H890.424H890.375H890.325H890.281H890.232H890.188H890.144H890.095H890.051H890.001H889.957H889.908H889.859H889.815H889.765H889.721H889.677H889.628H889.584H889.535H889.491H889.441H889.392H889.348H889.299H889.255H889.211H889.161H889.117H889.068V749.148V743.064V736.979V730.89V724.805V718.716V712.631V706.546V700.457V694.373V688.284V682.199V676.11V670.025V663.94V657.851V651.766V645.677V639.593V633.508V627.419V621.334V615.245V609.16V603.076V596.986V590.902V584.813V578.728V572.639V566.554V560.469V554.38V548.295V542.206V536.122V530.037V523.948V517.863V511.774V505.689V499.6V493.515V487.431V481.342V475.257V469.168V463.083V456.998V450.909V444.824V438.735V432.651V426.562V420.477V414.391V408.304V402.217V396.131V390.044V383.958V377.872V371.785V365.698V359.612V353.526V347.439V341.352V335.266V329.179V323.093V317.006V310.92V304.833V298.746V292.66V286.573V280.487V274.4V268.314V262.228V256.14V250.054V243.967V237.881V231.794V225.707V219.622V213.536V207.451V201.36V195.274V189.189V183.103V177.018V170.927V164.842V158.756V152.671V146.585V140.494V134.409V128.323V122.238V116.152V110.062V103.976V97.8904V91.8049V85.7194V79.6288V73.5432V67.4577V61.3721V55.2865V49.201V43.1104V37.0248V30.9393V24.8537V18.7631V12.6776V6.59209V0.506516V-5.57906V-11.6646V-17.7552V-23.8408H889.117H889.161H889.211H889.255H889.299H889.348H889.392H889.441H889.491H889.535H889.584H889.628H889.677H889.721H889.765H889.815H889.859H889.908H889.957H890.001H890.051H890.095H890.144H890.188H890.232H890.281H890.325H890.375H890.424H890.468H890.517H890.561H890.605H890.655H890.699H890.748H890.798H890.841H890.891H890.935H890.984H891.028H891.072H891.121H891.165H891.22H891.264H891.308H891.358H891.402H891.451H891.495H891.539H891.588H891.638H891.682H891.731H891.775H891.824H891.868H891.918H891.962H892.006H892.055H892.104H892.148H892.198H892.242H892.291H892.335H892.384H892.428H892.472H892.527H892.571H892.615H892.665H892.708H892.758H892.802H892.846H892.895H892.945H892.994H893.038H893.082H893.131H893.175H893.225H893.269H893.312H893.367H893.411H893.461H893.505H893.549H893.598H893.642H893.691H893.735H893.785H893.834H893.878H893.922H893.971H894.015H894.065H894.109H894.158H894.202H894.251H894.301H894.345H894.389H894.438H894.482H894.531H894.575H894.619H894.674H894.718H894.768H894.811H894.855H894.905H894.949H894.998H895.042V-17.7552V-11.6646V-5.57906V0.506516V6.59209V12.6776V18.7631V24.8537V30.9393V37.0248V43.1104V49.201V55.2865V61.3721V67.4577V73.5432V79.6288V85.7194V91.8049V97.8904V103.976V110.062V116.152V122.238V128.323V134.409V140.494V146.585V152.671V158.756V164.842V170.927V177.018V183.103V189.189V195.274V201.36V207.451V213.536V219.622V225.707V231.794V237.881V243.967V250.054V256.14V262.228V268.314V274.4V280.487V286.573V292.66V298.746V304.833V310.92V317.006V323.093V329.179V335.266V341.352V347.439V353.526V359.612V365.698V371.785V377.872V383.958V390.044V396.131V402.217V408.304V414.391V420.477V426.562V432.651V438.735V444.824V450.909V456.998V463.083V469.168V475.257V481.342V487.431V493.515V499.6V505.689V511.774V517.863V523.948V530.037V536.122V542.206V548.295V554.38V560.469V566.554V572.639V578.728V584.813V590.902V596.986V603.076V609.16V615.245V621.334V627.419V633.508V639.593V645.677V651.766V657.851V663.94V670.025V676.11V682.199V688.284V694.373V700.457V706.546V712.631V718.716V724.805V730.89V736.979V743.064V749.148V755.237Z" fill="#315AA6" fill-opacity="0.3"/>
<path d="M834.813 755.237H834.695H834.582H834.465H834.347H834.229H834.116H833.999H833.881H833.763H833.65H833.527H833.415H833.297H833.184H833.061H832.949H832.831H832.718H832.595H832.483H832.365H832.247H832.129H832.011H831.899H831.776H831.663H831.545H831.433H831.31H831.197H831.079H830.967H830.844H830.731H830.613H830.495H830.378H830.265H830.147H830.029H829.912H829.799H829.681H829.563H829.445H829.328H829.215H829.097H828.979H828.862H828.744H828.626H828.513H828.396H828.278H828.16H828.047H827.929H827.812H827.694H827.581H827.458H827.346H827.228H827.115H826.992H826.88H826.762H826.649H826.526H826.414H826.296H826.178H826.06H825.942H825.83H825.707H825.594H825.476H825.364H825.241H825.128H825.01H824.898H824.775H824.662H824.544H824.431H824.309H824.196H824.078H823.96H823.842H823.73H823.612H823.494H823.376H823.259H823.146H823.023H822.91H822.793H822.68H822.557H822.444H822.327H822.209H822.091H821.978H821.86H821.743H821.625H821.512H821.394H821.277H821.159H821.046H820.923H820.811H820.693H820.58H820.457H820.344H820.227H820.109H819.991H819.873V749.148V743.063V736.979V730.89V724.805V718.716V712.631V706.546V700.457V694.373V688.284V682.198V676.11V670.025V663.94V657.851V651.766V645.677V639.593V633.508V627.419V621.334V615.245V609.16V603.076V596.987V590.902V584.813V578.728V572.639V566.554V560.469V554.38V548.295V542.206V536.121V530.037V523.948V517.863V511.774V505.689V499.6V493.516V487.431V481.342V475.257V469.168V463.083V456.998V450.91V444.824V438.735V432.651V426.562V420.477V414.39V408.304V402.217V396.131V390.044V383.958V377.872V371.785V365.698V359.612V353.526V347.439V341.352V335.266V329.179V323.092V317.006V310.919V304.833V298.747V292.66V286.573V280.487V274.4V268.314V262.226V256.139V250.053V243.966V237.88V231.793V225.707V219.62V213.534V207.447V201.36V195.274V189.187V183.101V177.014V170.928V164.841V158.755V152.668V146.582V140.495V134.409V128.322V122.236V116.149V110.063V103.976V97.8895V91.803V85.7164V79.6299V73.5434V67.4569V61.3703V55.2838V49.1973V43.1107V37.0242V30.9377V24.8512V18.7647V12.6781V6.59157V0.505081V-5.58147V-11.668V-17.7546V-23.8411H819.991H820.109H820.227H820.344H820.457H820.58H820.693H820.811H820.923H821.046H821.159H821.277H821.394H821.512H821.625H821.743H821.86H821.978H822.091H822.209H822.327H822.444H822.557H822.68H822.793H822.91H823.023H823.146H823.259H823.376H823.494H823.612H823.73H823.842H823.96H824.078H824.196H824.309H824.431H824.544H824.662H824.775H824.898H825.01H825.128H825.241H825.364H825.476H825.594H825.707H825.83H825.942H826.06H826.178H826.296H826.414H826.526H826.649H826.762H826.88H826.992H827.115H827.228H827.346H827.458H827.581H827.694H827.812H827.929H828.047H828.16H828.278H828.396H828.513H828.626H828.744H828.862H828.979H829.097H829.215H829.328H829.445H829.563H829.681H829.799H829.912H830.029H830.147H830.265H830.378H830.495H830.613H830.731H830.844H830.967H831.079H831.197H831.31H831.433H831.545H831.663H831.776H831.899H832.011H832.129H832.247H832.365H832.483H832.595H832.718H832.831H832.949H833.061H833.184H833.297H833.415H833.527H833.65H833.763H833.881H833.999H834.116H834.229H834.347H834.465H834.582H834.695H834.813V-17.7546V-11.668V-5.58147V0.505081V6.59157V12.6781V18.7647V24.8512V30.9377V37.0242V43.1107V49.1973V55.2838V61.3703V67.4569V73.5434V79.6299V85.7164V91.803V97.8895V103.976V110.063V116.149V122.236V128.322V134.409V140.495V146.582V152.668V158.755V164.841V170.928V177.014V183.101V189.187V195.274V201.36V207.447V213.534V219.62V225.707V231.793V237.88V243.966V250.053V256.139V262.226V268.314V274.4V280.487V286.573V292.66V298.747V304.833V310.919V317.006V323.092V329.179V335.266V341.352V347.439V353.526V359.612V365.698V371.785V377.872V383.958V390.044V396.131V402.217V408.304V414.39V420.477V426.562V432.651V438.735V444.824V450.91V456.998V463.083V469.168V475.257V481.342V487.431V493.516V499.6V505.689V511.774V517.863V523.948V530.037V536.121V542.206V548.295V554.38V560.469V566.554V572.639V578.728V584.813V590.902V596.987V603.076V609.16V615.245V621.334V627.419V633.508V639.593V645.677V651.766V657.851V663.94V670.025V676.11V682.198V688.284V694.373V700.457V706.546V712.631V718.716V724.805V730.89V736.979V743.063V749.148V755.237Z" fill="#315AA6" fill-opacity="0.3"/>
<path d="M765.621 755.237H765.576H765.527H765.483H765.434H765.39H765.341H765.292H765.247H765.198H765.154H765.11H765.061H765.017H764.967H764.918H764.874H764.825H764.781H764.732H764.688H764.643H764.594H764.55H764.501H764.452H764.408H764.359H764.314H764.265H764.221H764.177H764.128H764.084H764.029H763.985H763.941H763.892H763.848H763.799H763.755H763.71H763.661H763.612H763.563H763.519H763.475H763.425H763.381H763.332H763.288H763.244H763.19H763.146H763.096H763.052H763.008H762.959H762.915H762.866H762.821H762.777H762.723H762.679H762.63H762.586H762.542H762.492H762.448H762.399H762.355H762.306H762.257H762.213H762.163H762.119H762.075H762.026H761.982H761.933H761.884H761.839H761.79H761.746H761.697H761.653H761.609H761.559H761.515H761.461H761.417H761.373H761.324H761.28H761.23H761.186H761.142H761.093H761.049H761H760.951H760.906H760.857H760.813H760.764H760.72H760.676H760.626H760.577H760.533H760.484H760.44H760.391H760.347H760.297H760.253H760.209H760.155H760.111H760.067H760.018H759.973H759.924H759.88H759.836H759.787H759.738H759.689H759.644V749.148V743.063V736.979V730.89V724.805V718.716V712.631V706.547V700.457V694.373V688.284V682.199V676.11V670.025V663.94V657.851V651.767V645.678V639.593V633.508V627.419V621.334V615.245V609.161V603.076V596.987V590.902V584.813V578.728V572.639V566.555V560.47V554.381V548.296V542.207V536.122V530.038V523.948V517.864V511.775V505.69V499.601V493.516V487.432V481.342V475.258V469.169V463.084V456.999V450.91V444.825V438.737V432.651V426.563V420.478V414.391V408.305V402.218V396.132V390.046V383.959V377.873V371.786V365.699V359.613V353.527V347.44V341.354V335.267V329.18V323.094V317.007V310.921V304.834V298.748V292.661V286.575V280.49V274.4V268.316V262.231V256.142V250.057V243.968V237.883V231.794V225.709V219.624V213.535V207.45V201.361V195.276V189.192V183.103V177.018V170.933V164.844V158.759V152.67V146.585V140.5V134.411V128.327V122.237V116.153V110.063V103.979V97.8939V91.8047V85.72V79.6352V73.546V67.4613V61.3721V55.2873V49.2026V43.1134V37.0287V30.9394V24.8547V18.77V12.6808V6.59605V0.506882V-5.57796V-11.6627V-17.7519V-23.8366H759.689H759.738H759.787H759.836H759.88H759.924H759.973H760.018H760.067H760.111H760.155H760.209H760.253H760.297H760.347H760.391H760.44H760.484H760.533H760.577H760.626H760.676H760.72H760.764H760.813H760.857H760.906H760.951H761H761.049H761.093H761.142H761.186H761.23H761.28H761.324H761.373H761.417H761.461H761.515H761.559H761.609H761.653H761.697H761.746H761.79H761.839H761.884H761.933H761.982H762.026H762.075H762.119H762.163H762.213H762.257H762.306H762.355H762.399H762.448H762.492H762.542H762.586H762.63H762.679H762.723H762.777H762.821H762.866H762.915H762.959H763.008H763.052H763.096H763.146H763.19H763.244H763.288H763.332H763.381H763.425H763.475H763.519H763.563H763.612H763.661H763.71H763.755H763.799H763.848H763.892H763.941H763.985H764.029H764.084H764.128H764.177H764.221H764.265H764.314H764.359H764.408H764.452H764.501H764.55H764.594H764.643H764.688H764.732H764.781H764.825H764.874H764.918H764.967H765.017H765.061H765.11H765.154H765.198H765.247H765.292H765.341H765.39H765.434H765.483H765.527H765.576H765.621V-17.7519V-11.6627V-5.57796V0.506882V6.59605V12.6808V18.77V24.8547V30.9394V37.0287V43.1134V49.2026V55.2873V61.3721V67.4613V73.546V79.6352V85.72V91.8047V97.8939V103.979V110.063V116.153V122.237V128.327V134.411V140.5V146.585V152.67V158.759V164.844V170.933V177.018V183.103V189.192V195.276V201.361V207.45V213.535V219.624V225.709V231.794V237.883V243.968V250.057V256.142V262.231V268.316V274.4V280.49V286.575V292.661V298.748V304.834V310.921V317.007V323.094V329.18V335.267V341.354V347.44V353.527V359.613V365.699V371.786V377.873V383.959V390.046V396.132V402.218V408.305V414.391V420.478V426.563V432.651V438.737V444.825V450.91V456.999V463.084V469.169V475.258V481.342V487.432V493.516V499.601V505.69V511.775V517.864V523.948V530.038V536.122V542.207V548.296V554.381V560.47V566.555V572.639V578.728V584.813V590.902V596.987V603.076V609.161V615.245V621.334V627.419V633.508V639.593V645.678V651.767V657.851V663.94V670.025V676.11V682.199V688.284V694.373V700.457V706.547V712.631V718.716V724.805V730.89V736.979V743.063V749.148V755.237Z" fill="#315AA6" fill-opacity="0.3"/>
<path d="M700.913 755.237H700.864H700.82H700.77H700.721H700.677H700.628H700.584H700.54H700.491H700.446H700.397H700.353H700.304H700.255H700.211H700.161H700.117H700.073H700.024H699.98H699.931H699.882H699.837H699.788H699.744H699.695H699.651H699.602H699.557H699.513H699.459H699.415H699.371H699.322H699.278H699.228H699.184H699.14H699.091H699.042H698.993H698.949H698.904H698.855H698.811H698.762H698.718H698.674H698.624H698.575H698.526H698.482H698.438H698.389H698.345H698.295H698.251H698.207H698.153H698.109H698.06H698.016H697.971H697.922H697.878H697.829H697.785H697.736H697.686H697.642H697.593H697.549H697.505H697.456H697.412H697.362H697.313H697.269H697.22H697.176H697.127H697.082H697.038H696.989H696.945H696.891H696.847H696.803H696.753H696.709H696.66H696.616H696.572H696.523H696.478H696.424H696.38H696.336H696.287H696.243H696.194H696.149H696.105H696.056H696.007H695.958H695.914H695.87H695.82H695.776H695.727H695.683H695.639H695.585H695.541H695.491H695.447H695.403H695.354H695.31H695.261H695.216H695.167H695.118H695.074H695.025H694.981H694.937V749.148V743.063V736.979V730.89V724.805V718.716V712.631V706.547V700.457V694.373V688.284V682.199V676.11V670.025V663.94V657.851V651.767V645.678V639.593V633.508V627.419V621.334V615.245V609.161V603.076V596.987V590.902V584.813V578.728V572.639V566.555V560.47V554.381V548.296V542.207V536.122V530.038V523.948V517.864V511.775V505.69V499.601V493.516V487.432V481.342V475.258V469.169V463.084V456.999V450.91V444.825V438.737V432.651V426.563V420.478V414.391V408.305V402.218V396.132V390.046V383.959V377.873V371.786V365.699V359.613V353.527V347.44V341.354V335.267V329.18V323.094V317.007V310.921V304.834V298.748V292.661V286.575V280.49V274.4V268.316V262.231V256.142V250.057V243.968V237.883V231.794V225.709V219.624V213.535V207.45V201.361V195.276V189.192V183.103V177.018V170.933V164.844V158.759V152.67V146.585V140.5V134.411V128.327V122.237V116.153V110.063V103.979V97.8939V91.8047V85.72V79.6352V73.546V67.4613V61.3721V55.2873V49.2026V43.1134V37.0287V30.9394V24.8547V18.77V12.6808V6.59605V0.506882V-5.57796V-11.6627V-17.7519V-23.8366H694.981H695.025H695.074H695.118H695.167H695.216H695.261H695.31H695.354H695.403H695.447H695.491H695.541H695.585H695.639H695.683H695.727H695.776H695.82H695.87H695.914H695.958H696.007H696.056H696.105H696.149H696.194H696.243H696.287H696.336H696.38H696.424H696.478H696.523H696.572H696.616H696.66H696.709H696.753H696.803H696.847H696.891H696.945H696.989H697.038H697.082H697.127H697.176H697.22H697.269H697.313H697.362H697.412H697.456H697.505H697.549H697.593H697.642H697.686H697.736H697.785H697.829H697.878H697.922H697.971H698.016H698.06H698.109H698.153H698.207H698.251H698.295H698.345H698.389H698.438H698.482H698.526H698.575H698.624H698.674H698.718H698.762H698.811H698.855H698.904H698.949H698.993H699.042H699.091H699.14H699.184H699.228H699.278H699.322H699.371H699.415H699.459H699.513H699.557H699.602H699.651H699.695H699.744H699.788H699.837H699.882H699.931H699.98H700.024H700.073H700.117H700.161H700.211H700.255H700.304H700.353H700.397H700.446H700.491H700.54H700.584H700.628H700.677H700.721H700.77H700.82H700.864H700.913V-17.7519V-11.6627V-5.57796V0.506882V6.59605V12.6808V18.77V24.8547V30.9394V37.0287V43.1134V49.2026V55.2873V61.3721V67.4613V73.546V79.6352V85.72V91.8047V97.8939V103.979V110.063V116.153V122.237V128.327V134.411V140.5V146.585V152.67V158.759V164.844V170.933V177.018V183.103V189.192V195.276V201.361V207.45V213.535V219.624V225.709V231.794V237.883V243.968V250.057V256.142V262.231V268.316V274.4V280.49V286.575V292.661V298.748V304.834V310.921V317.007V323.094V329.18V335.267V341.354V347.44V353.527V359.613V365.699V371.786V377.873V383.959V390.046V396.132V402.218V408.305V414.391V420.478V426.563V432.651V438.737V444.825V450.91V456.999V463.084V469.169V475.258V481.342V487.432V493.516V499.601V505.69V511.775V517.864V523.948V530.038V536.122V542.207V548.296V554.381V560.47V566.555V572.639V578.728V584.813V590.902V596.987V603.076V609.161V615.245V621.334V627.419V633.508V639.593V645.678V651.767V657.851V663.94V670.025V676.11V682.199V688.284V694.373V700.457V706.547V712.631V718.716V724.805V730.89V736.979V743.063V749.148V755.237Z" fill="#315AA6" fill-opacity="0.3"/>
<path d="M636.2 755.237H636.156H636.112H636.058H636.014H635.964H635.92H635.876H635.827H635.783H635.734H635.689H635.645H635.591H635.547H635.498H635.454H635.41H635.36H635.316H635.267H635.223H635.174H635.125H635.081H635.031H634.987H634.943H634.894H634.85H634.801H634.752H634.707H634.658H634.614H634.565H634.521H634.477H634.427H634.383H634.329H634.285H634.241H634.192H634.148H634.098H634.054H634.01H633.961H633.917H633.863H633.818H633.774H633.725H633.681H633.632H633.588H633.544H633.494H633.445H633.396H633.352H633.308H633.259H633.214H633.165H633.121H633.077H633.023H632.979H632.93H632.885H632.841H632.792H632.748H632.699H632.655H632.606H632.556H632.512H632.463H632.419H632.375H632.326H632.281H632.232H632.183H632.139H632.09H632.046H631.997H631.952H631.908H631.859H631.815H631.766H631.717H631.673H631.623H631.579H631.53H631.486H631.442H631.393H631.348H631.294H631.25H631.206H631.157H631.113H631.064H631.019H630.975H630.926H630.877H630.833H630.784H630.739H630.69H630.646H630.597H630.553H630.509H630.455H630.41H630.366H630.317H630.273H630.224V749.148V743.063V736.979V730.89V724.805V718.716V712.631V706.547V700.457V694.373V688.284V682.199V676.11V670.025V663.94V657.851V651.767V645.678V639.593V633.508V627.419V621.334V615.245V609.161V603.076V596.987V590.902V584.813V578.728V572.639V566.555V560.47V554.381V548.296V542.207V536.122V530.038V523.948V517.864V511.775V505.69V499.601V493.516V487.432V481.342V475.258V469.169V463.084V456.999V450.91V444.825V438.737V432.651V426.563V420.478V414.391V408.305V402.218V396.132V390.046V383.959V377.873V371.786V365.699V359.613V353.527V347.44V341.354V335.267V329.18V323.094V317.007V310.921V304.834V298.748V292.661V286.575V280.49V274.4V268.316V262.231V256.142V250.057V243.968V237.883V231.794V225.709V219.624V213.535V207.45V201.361V195.276V189.192V183.103V177.018V170.933V164.844V158.759V152.67V146.585V140.5V134.411V128.327V122.237V116.153V110.063V103.979V97.8939V91.8047V85.72V79.6352V73.546V67.4613V61.3721V55.2873V49.2026V43.1134V37.0287V30.9394V24.8547V18.77V12.6808V6.59605V0.506882V-5.57796V-11.6627V-17.7519V-23.8366H630.273H630.317H630.366H630.41H630.455H630.509H630.553H630.597H630.646H630.69H630.739H630.784H630.833H630.877H630.926H630.975H631.019H631.064H631.113H631.157H631.206H631.25H631.294H631.348H631.393H631.442H631.486H631.53H631.579H631.623H631.673H631.717H631.766H631.815H631.859H631.908H631.952H631.997H632.046H632.09H632.139H632.183H632.232H632.281H632.326H632.375H632.419H632.463H632.512H632.556H632.606H632.655H632.699H632.748H632.792H632.841H632.885H632.93H632.979H633.023H633.077H633.121H633.165H633.214H633.259H633.308H633.352H633.396H633.445H633.494H633.544H633.588H633.632H633.681H633.725H633.774H633.818H633.863H633.917H633.961H634.01H634.054H634.098H634.148H634.192H634.241H634.285H634.329H634.383H634.427H634.477H634.521H634.565H634.614H634.658H634.707H634.752H634.801H634.85H634.894H634.943H634.987H635.031H635.081H635.125H635.174H635.223H635.267H635.316H635.36H635.41H635.454H635.498H635.547H635.591H635.645H635.689H635.734H635.783H635.827H635.876H635.92H635.964H636.014H636.058H636.112H636.156H636.2V-17.7519V-11.6627V-5.57796V0.506882V6.59605V12.6808V18.77V24.8547V30.9394V37.0287V43.1134V49.2026V55.2873V61.3721V67.4613V73.546V79.6352V85.72V91.8047V97.8939V103.979V110.063V116.153V122.237V128.327V134.411V140.5V146.585V152.67V158.759V164.844V170.933V177.018V183.103V189.192V195.276V201.361V207.45V213.535V219.624V225.709V231.794V237.883V243.968V250.057V256.142V262.231V268.316V274.4V280.49V286.575V292.661V298.748V304.834V310.921V317.007V323.094V329.18V335.267V341.354V347.44V353.527V359.613V365.699V371.786V377.873V383.959V390.046V396.132V402.218V408.305V414.391V420.478V426.563V432.651V438.737V444.825V450.91V456.999V463.084V469.169V475.258V481.342V487.432V493.516V499.601V505.69V511.775V517.864V523.948V530.038V536.122V542.207V548.296V554.381V560.47V566.555V572.639V578.728V584.813V590.902V596.987V603.076V609.161V615.245V621.334V627.419V633.508V639.593V645.678V651.767V657.851V663.94V670.025V676.11V682.199V688.284V694.373V700.457V706.547V712.631V718.716V724.805V730.89V736.979V743.063V749.148V755.237Z" fill="#315AA6" fill-opacity="0.3"/>
<path d="M571.492 755.237H571.443H571.394H571.35H571.301H571.257H571.212H571.163H571.119H571.07H571.021H570.977H570.928H570.883H570.834H570.79H570.746H570.697H570.653H570.604H570.554H570.51H570.461H570.417H570.373H570.324H570.279H570.23H570.181H570.137H570.088H570.044H569.995H569.95H569.901H569.857H569.813H569.759H569.715H569.671H569.621H569.577H569.528H569.484H569.435H569.391H569.346H569.292H569.248H569.204H569.155H569.111H569.062H569.017H568.973H568.924H568.875H568.826H568.782H568.738H568.688H568.644H568.595H568.551H568.502H568.453H568.409H568.359H568.315H568.271H568.222H568.178H568.129H568.084H568.035H567.986H567.942H567.893H567.849H567.805H567.755H567.711H567.662H567.618H567.569H567.52H567.475H567.426H567.382H567.338H567.289H567.245H567.196H567.146H567.102H567.053H567.009H566.96H566.916H566.871H566.822H566.778H566.724H566.68H566.636H566.587H566.542H566.493H566.449H566.405H566.356H566.307H566.258H566.213H566.169H566.12H566.076H566.027H565.983H565.938H565.889H565.84H565.791H565.747H565.703H565.654H565.609H565.56H565.516V749.148V743.063V736.979V730.89V724.805V718.716V712.631V706.547V700.457V694.373V688.284V682.199V676.11V670.025V663.94V657.851V651.767V645.678V639.593V633.508V627.419V621.334V615.245V609.161V603.076V596.987V590.902V584.813V578.728V572.639V566.555V560.47V554.381V548.296V542.207V536.122V530.038V523.948V517.864V511.775V505.69V499.601V493.516V487.432V481.342V475.258V469.169V463.084V456.999V450.91V444.825V438.737V432.651V426.563V420.478V414.391V408.305V402.218V396.132V390.046V383.959V377.873V371.786V365.699V359.613V353.527V347.44V341.354V335.267V329.18V323.094V317.007V310.921V304.834V298.748V292.661V286.575V280.49V274.4V268.316V262.231V256.142V250.057V243.968V237.883V231.794V225.709V219.624V213.535V207.45V201.361V195.276V189.192V183.103V177.018V170.933V164.844V158.759V152.67V146.585V140.5V134.411V128.327V122.237V116.153V110.063V103.979V97.8939V91.8047V85.72V79.6352V73.546V67.4613V61.3721V55.2873V49.2026V43.1134V37.0287V30.9394V24.8547V18.77V12.6808V6.59605V0.506882V-5.57796V-11.6627V-17.7519V-23.8366H565.56H565.609H565.654H565.703H565.747H565.791H565.84H565.889H565.938H565.983H566.027H566.076H566.12H566.169H566.213H566.258H566.307H566.356H566.405H566.449H566.493H566.542H566.587H566.636H566.68H566.724H566.778H566.822H566.871H566.916H566.96H567.009H567.053H567.102H567.146H567.196H567.245H567.289H567.338H567.382H567.426H567.475H567.52H567.569H567.618H567.662H567.711H567.755H567.805H567.849H567.893H567.942H567.986H568.035H568.084H568.129H568.178H568.222H568.271H568.315H568.359H568.409H568.453H568.502H568.551H568.595H568.644H568.688H568.738H568.782H568.826H568.875H568.924H568.973H569.017H569.062H569.111H569.155H569.204H569.248H569.292H569.346H569.391H569.435H569.484H569.528H569.577H569.621H569.671H569.715H569.759H569.813H569.857H569.901H569.95H569.995H570.044H570.088H570.137H570.181H570.23H570.279H570.324H570.373H570.417H570.461H570.51H570.554H570.604H570.653H570.697H570.746H570.79H570.834H570.883H570.928H570.977H571.021H571.07H571.119H571.163H571.212H571.257H571.301H571.35H571.394H571.443H571.492V-17.7519V-11.6627V-5.57796V0.506882V6.59605V12.6808V18.77V24.8547V30.9394V37.0287V43.1134V49.2026V55.2873V61.3721V67.4613V73.546V79.6352V85.72V91.8047V97.8939V103.979V110.063V116.153V122.237V128.327V134.411V140.5V146.585V152.67V158.759V164.844V170.933V177.018V183.103V189.192V195.276V201.361V207.45V213.535V219.624V225.709V231.794V237.883V243.968V250.057V256.142V262.231V268.316V274.4V280.49V286.575V292.661V298.748V304.834V310.921V317.007V323.094V329.18V335.267V341.354V347.44V353.527V359.613V365.699V371.786V377.873V383.959V390.046V396.132V402.218V408.305V414.391V420.478V426.563V432.651V438.737V444.825V450.91V456.999V463.084V469.169V475.258V481.342V487.432V493.516V499.601V505.69V511.775V517.864V523.948V530.038V536.122V542.207V548.296V554.381V560.47V566.555V572.639V578.728V584.813V590.902V596.987V603.076V609.161V615.245V621.334V627.419V633.508V639.593V645.678V651.767V657.851V663.94V670.025V676.11V682.199V688.284V694.373V700.457V706.547V712.631V718.716V724.805V730.89V736.979V743.063V749.148V755.237Z" fill="#315AA6" fill-opacity="0.3"/>
<path d="M506.78 755.237H506.731H506.687H506.642H506.593H506.549H506.5H506.456H506.412H506.363H506.313H506.264H506.22H506.176H506.127H506.083H506.034H505.989H505.945H505.891H505.847H505.798H505.754H505.709H505.66H505.616H505.567H505.523H505.474H505.425H505.38H505.331H505.287H505.243H505.194H505.15H505.1H505.051H505.007H504.958H504.914H504.865H504.821H504.776H504.727H504.683H504.634H504.585H504.541H504.492H504.447H504.398H504.354H504.31H504.261H504.217H504.163H504.118H504.074H504.025H503.981H503.932H503.888H503.843H503.794H503.745H503.696H503.652H503.608H503.559H503.514H503.465H503.421H503.377H503.323H503.279H503.23H503.185H503.141H503.092H503.048H502.999H502.955H502.91H502.856H502.812H502.763H502.719H502.675H502.626H502.581H502.532H502.488H502.439H502.39H502.346H502.297H502.252H502.208H502.159H502.115H502.066H502.017H501.972H501.923H501.879H501.83H501.786H501.742H501.693H501.648H501.594H501.55H501.506H501.457H501.413H501.363H501.319H501.275H501.226H501.177H501.128H501.084H501.039H500.99H500.946H500.897H500.853H500.809V749.148V743.063V736.979V730.89V724.805V718.716V712.631V706.547V700.457V694.373V688.284V682.199V676.11V670.025V663.94V657.851V651.767V645.678V639.593V633.508V627.419V621.334V615.245V609.161V603.076V596.987V590.902V584.813V578.728V572.639V566.555V560.47V554.381V548.296V542.207V536.122V530.038V523.948V517.864V511.775V505.69V499.601V493.516V487.432V481.342V475.258V469.169V463.084V456.999V450.91V444.825V438.737V432.651V426.563V420.478V414.391V408.305V402.218V396.132V390.046V383.959V377.873V371.786V365.699V359.613V353.527V347.44V341.354V335.267V329.18V323.094V317.007V310.921V304.834V298.748V292.661V286.575V280.49V274.4V268.316V262.231V256.142V250.057V243.968V237.883V231.794V225.709V219.624V213.535V207.45V201.361V195.276V189.192V183.103V177.018V170.933V164.844V158.759V152.67V146.585V140.5V134.411V128.327V122.237V116.153V110.063V103.979V97.8939V91.8047V85.72V79.6352V73.546V67.4613V61.3721V55.2873V49.2026V43.1134V37.0287V30.9394V24.8547V18.77V12.6808V6.59605V0.506882V-5.57796V-11.6627V-17.7519V-23.8366H500.853H500.897H500.946H500.99H501.039H501.084H501.128H501.177H501.226H501.275H501.319H501.363H501.413H501.457H501.506H501.55H501.594H501.648H501.693H501.742H501.786H501.83H501.879H501.923H501.972H502.017H502.066H502.115H502.159H502.208H502.252H502.297H502.346H502.39H502.439H502.488H502.532H502.581H502.626H502.675H502.719H502.763H502.812H502.856H502.91H502.955H502.999H503.048H503.092H503.141H503.185H503.23H503.279H503.323H503.377H503.421H503.465H503.514H503.559H503.608H503.652H503.696H503.745H503.794H503.843H503.888H503.932H503.981H504.025H504.074H504.118H504.163H504.217H504.261H504.31H504.354H504.398H504.447H504.492H504.541H504.585H504.634H504.683H504.727H504.776H504.821H504.865H504.914H504.958H505.007H505.051H505.1H505.15H505.194H505.243H505.287H505.331H505.38H505.425H505.474H505.523H505.567H505.616H505.66H505.709H505.754H505.798H505.847H505.891H505.945H505.989H506.034H506.083H506.127H506.176H506.22H506.264H506.313H506.363H506.412H506.456H506.5H506.549H506.593H506.642H506.687H506.731H506.78V-17.7519V-11.6627V-5.57796V0.506882V6.59605V12.6808V18.77V24.8547V30.9394V37.0287V43.1134V49.2026V55.2873V61.3721V67.4613V73.546V79.6352V85.72V91.8047V97.8939V103.979V110.063V116.153V122.237V128.327V134.411V140.5V146.585V152.67V158.759V164.844V170.933V177.018V183.103V189.192V195.276V201.361V207.45V213.535V219.624V225.709V231.794V237.883V243.968V250.057V256.142V262.231V268.316V274.4V280.49V286.575V292.661V298.748V304.834V310.921V317.007V323.094V329.18V335.267V341.354V347.44V353.527V359.613V365.699V371.786V377.873V383.959V390.046V396.132V402.218V408.305V414.391V420.478V426.563V432.651V438.737V444.825V450.91V456.999V463.084V469.169V475.258V481.342V487.432V493.516V499.601V505.69V511.775V517.864V523.948V530.038V536.122V542.207V548.296V554.381V560.47V566.555V572.639V578.728V584.813V590.902V596.987V603.076V609.161V615.245V621.334V627.419V633.508V639.593V645.678V651.767V657.851V663.94V670.025V676.11V682.199V688.284V694.373V700.457V706.547V712.631V718.716V724.805V730.89V736.979V743.063V749.148V755.237Z" fill="#315AA6" fill-opacity="0.3"/>
<path d="M442.07 755.237H442.023H441.977H441.93H441.884H441.837H441.79H441.743H441.697H441.65H441.603H441.557H441.51H441.464H441.417H441.37H441.324H441.277H441.23H441.183H441.136H441.09H441.043H440.997H440.95H440.903H440.857H440.81H440.763H440.717H440.669H440.623H440.576H440.53H440.483H440.436H440.39H440.343H440.296H440.25H440.203H440.156H440.109H440.063H440.016H439.969H439.923H439.876H439.829H439.783H439.736H439.689H439.643H439.596H439.549H439.502H439.456H439.409H439.362H439.316H439.269H439.222H439.176H439.129H439.082H439.036H438.989H438.942H438.895H438.849H438.802H438.755H438.709H438.662H438.615H438.569H438.522H438.475H438.428H438.382H438.335H438.288H438.242H438.195H438.148H438.102H438.055H438.008H437.962H437.915H437.868H437.821H437.775H437.728H437.681H437.635H437.588H437.541H437.495H437.448H437.401H437.355H437.308H437.261H437.215H437.168H437.121H437.074H437.028H436.981H436.934H436.888H436.841H436.795H436.748H436.701H436.654H436.608H436.561H436.515H436.467H436.421H436.375H436.327H436.281H436.234H436.188H436.141H436.094V749.148V743.063V736.979V730.89V724.805V718.716V712.631V706.547V700.457V694.373V688.284V682.199V676.11V670.025V663.94V657.851V651.767V645.678V639.593V633.508V627.419V621.334V615.245V609.161V603.076V596.987V590.902V584.813V578.728V572.639V566.555V560.47V554.381V548.296V542.207V536.122V530.038V523.948V517.864V511.775V505.69V499.601V493.516V487.432V481.342V475.258V469.169V463.084V456.999V450.91V444.825V438.737V432.651V426.563V420.478V414.391V408.305V402.218V396.132V390.046V383.959V377.873V371.786V365.699V359.613V353.527V347.44V341.354V335.267V329.18V323.094V317.007V310.921V304.834V298.748V292.661V286.575V280.49V274.4V268.316V262.231V256.142V250.057V243.968V237.883V231.794V225.709V219.624V213.535V207.45V201.361V195.276V189.192V183.103V177.018V170.933V164.844V158.759V152.67V146.585V140.5V134.411V128.327V122.237V116.153V110.063V103.979V97.8939V91.8047V85.72V79.6352V73.546V67.4613V61.3721V55.2873V49.2026V43.1134V37.0287V30.9394V24.8547V18.77V12.6808V6.59605V0.506882V-5.57796V-11.6627V-17.7519V-23.8366H436.141H436.188H436.234H436.281H436.327H436.375H436.421H436.467H436.515H436.561H436.608H436.654H436.701H436.748H436.795H436.841H436.888H436.934H436.981H437.028H437.074H437.121H437.168H437.215H437.261H437.308H437.355H437.401H437.448H437.495H437.541H437.588H437.635H437.681H437.728H437.775H437.821H437.868H437.915H437.962H438.008H438.055H438.102H438.148H438.195H438.242H438.288H438.335H438.382H438.428H438.475H438.522H438.569H438.615H438.662H438.709H438.755H438.802H438.849H438.895H438.942H438.989H439.036H439.082H439.129H439.176H439.222H439.269H439.316H439.362H439.409H439.456H439.502H439.549H439.596H439.643H439.689H439.736H439.783H439.829H439.876H439.923H439.969H440.016H440.063H440.109H440.156H440.203H440.25H440.296H440.343H440.39H440.436H440.483H440.53H440.576H440.623H440.669H440.717H440.763H440.81H440.857H440.903H440.95H440.997H441.043H441.09H441.136H441.183H441.23H441.277H441.324H441.37H441.417H441.464H441.51H441.557H441.603H441.65H441.697H441.743H441.79H441.837H441.884H441.93H441.977H442.023H442.07V-17.7519V-11.6627V-5.57796V0.506882V6.59605V12.6808V18.77V24.8547V30.9394V37.0287V43.1134V49.2026V55.2873V61.3721V67.4613V73.546V79.6352V85.72V91.8047V97.8939V103.979V110.063V116.153V122.237V128.327V134.411V140.5V146.585V152.67V158.759V164.844V170.933V177.018V183.103V189.192V195.276V201.361V207.45V213.535V219.624V225.709V231.794V237.883V243.968V250.057V256.142V262.231V268.316V274.4V280.49V286.575V292.661V298.748V304.834V310.921V317.007V323.094V329.18V335.267V341.354V347.44V353.527V359.613V365.699V371.786V377.873V383.959V390.046V396.132V402.218V408.305V414.391V420.478V426.563V432.651V438.737V444.825V450.91V456.999V463.084V469.169V475.258V481.342V487.432V493.516V499.601V505.69V511.775V517.864V523.948V530.038V536.122V542.207V548.296V554.381V560.47V566.555V572.639V578.728V584.813V590.902V596.987V603.076V609.161V615.245V621.334V627.419V633.508V639.593V645.678V651.767V657.851V663.94V670.025V676.11V682.199V688.284V694.373V700.457V706.547V712.631V718.716V724.805V730.89V736.979V743.063V749.148V755.237Z" fill="#315AA6" fill-opacity="0.3"/>
<path d="M381.843 755.237H381.726H381.609H381.492H381.376H381.259H381.142H381.025H380.909H380.792H380.675H380.558H380.442H380.325H380.208H380.092H379.975H379.858H379.742H379.625H379.508H379.392H379.275H379.158H379.041H378.925H378.808H378.691H378.574H378.458H378.341H378.224H378.107H377.991H377.874H377.757H377.64H377.524H377.407H377.29H377.174H377.057H376.941H376.824H376.707H376.59H376.474H376.357H376.24H376.124H376.007H375.89H375.773H375.657H375.54H375.423H375.307H375.19H375.073H374.957H374.84H374.723H374.607H374.49H374.373H374.257H374.14H374.023H373.906H373.79H373.673H373.556H373.439H373.323H373.206H373.089H372.972H372.856H372.739H372.622H372.505H372.389H372.272H372.155H372.039H371.922H371.805H371.689H371.572H371.455H371.339H371.222H371.105H370.989H370.872H370.755H370.638H370.521H370.405H370.288H370.172H370.054H369.938H369.821H369.705H369.588H369.472H369.355H369.238H369.121H369.005H368.888H368.771H368.654H368.538H368.421H368.304H368.187H368.071H367.954H367.837H367.72H367.604H367.487H367.37H367.254H367.137H367.02H366.904V749.148V743.063V736.979V730.89V724.805V718.716V712.631V706.547V700.457V694.373V688.284V682.199V676.11V670.025V663.94V657.851V651.767V645.678V639.593V633.508V627.419V621.334V615.245V609.161V603.076V596.987V590.902V584.813V578.728V572.639V566.555V560.47V554.381V548.296V542.207V536.122V530.038V523.948V517.864V511.775V505.69V499.601V493.516V487.432V481.342V475.258V469.169V463.084V456.999V450.91V444.825V438.737V432.651V426.563V420.478V414.391V408.305V402.218V396.132V390.046V383.959V377.873V371.786V365.699V359.613V353.527V347.44V341.354V335.267V329.18V323.094V317.007V310.921V304.834V298.748V292.661V286.575V280.49V274.4V268.316V262.231V256.142V250.057V243.968V237.883V231.794V225.709V219.624V213.535V207.45V201.361V195.276V189.192V183.103V177.018V170.933V164.844V158.759V152.67V146.585V140.5V134.411V128.327V122.237V116.153V110.063V103.979V97.8939V91.8047V85.72V79.6352V73.546V67.4613V61.3721V55.2873V49.2026V43.1134V37.0287V30.9394V24.8547V18.77V12.6808V6.59605V0.506882V-5.57796V-11.6627V-17.7519V-23.8366H367.02H367.137H367.254H367.37H367.487H367.604H367.72H367.837H367.954H368.071H368.187H368.304H368.421H368.538H368.654H368.771H368.888H369.005H369.121H369.238H369.355H369.472H369.588H369.705H369.821H369.938H370.054H370.172H370.288H370.405H370.521H370.638H370.755H370.872H370.989H371.105H371.222H371.339H371.455H371.572H371.689H371.805H371.922H372.039H372.155H372.272H372.389H372.505H372.622H372.739H372.856H372.972H373.089H373.206H373.323H373.439H373.556H373.673H373.79H373.906H374.023H374.14H374.257H374.373H374.49H374.607H374.723H374.84H374.957H375.073H375.19H375.307H375.423H375.54H375.657H375.773H375.89H376.007H376.124H376.24H376.357H376.474H376.59H376.707H376.824H376.941H377.057H377.174H377.29H377.407H377.524H377.64H377.757H377.874H377.991H378.107H378.224H378.341H378.458H378.574H378.691H378.808H378.925H379.041H379.158H379.275H379.392H379.508H379.625H379.742H379.858H379.975H380.092H380.208H380.325H380.442H380.558H380.675H380.792H380.909H381.025H381.142H381.259H381.376H381.492H381.609H381.726H381.843V-17.7519V-11.6627V-5.57796V0.506882V6.59605V12.6808V18.77V24.8547V30.9394V37.0287V43.1134V49.2026V55.2873V61.3721V67.4613V73.546V79.6352V85.72V91.8047V97.8939V103.979V110.063V116.153V122.237V128.327V134.411V140.5V146.585V152.67V158.759V164.844V170.933V177.018V183.103V189.192V195.276V201.361V207.45V213.535V219.624V225.709V231.794V237.883V243.968V250.057V256.142V262.231V268.316V274.4V280.49V286.575V292.661V298.748V304.834V310.921V317.007V323.094V329.18V335.267V341.354V347.44V353.527V359.613V365.699V371.786V377.873V383.959V390.046V396.132V402.218V408.305V414.391V420.478V426.563V432.651V438.737V444.825V450.91V456.999V463.084V469.169V475.258V481.342V487.432V493.516V499.601V505.69V511.775V517.864V523.948V530.038V536.122V542.207V548.296V554.381V560.47V566.555V572.639V578.728V584.813V590.902V596.987V603.076V609.161V615.245V621.334V627.419V633.508V639.593V645.678V651.767V657.851V663.94V670.025V676.11V682.199V688.284V694.373V700.457V706.547V712.631V718.716V724.805V730.89V736.979V743.063V749.148V755.237Z" fill="#315AA6" fill-opacity="0.3"/>
<path d="M312.652 755.237H312.605H312.558H312.511H312.465H312.418H312.371H312.325H312.278H312.231H312.185H312.138H312.092H312.045H311.998H311.952H311.904H311.858H311.811H311.764H311.718H311.671H311.624H311.578H311.531H311.485H311.438H311.391H311.344H311.297H311.251H311.204H311.157H311.111H311.064H311.018H310.971H310.924H310.878H310.831H310.784H310.738H310.69H310.644H310.597H310.551H310.504H310.457H310.411H310.364H310.317H310.27H310.224H310.177H310.131H310.084H310.037H309.991H309.944H309.897H309.85H309.804H309.757H309.71H309.664H309.617H309.57H309.524H309.477H309.43H309.384H309.337H309.29H309.244H309.197H309.15H309.103H309.057H309.01H308.963H308.917H308.87H308.823H308.777H308.73H308.684H308.637H308.59H308.543H308.496H308.45H308.403H308.356H308.31H308.263H308.216H308.17H308.123H308.077H308.029H307.983H307.936H307.889H307.843H307.796H307.75H307.703H307.656H307.61H307.563H307.516H307.469H307.422H307.376H307.329H307.282H307.236H307.189H307.143H307.096H307.049H307.003H306.956H306.909H306.862H306.815H306.769H306.722H306.676V749.148V743.063V736.979V730.89V724.805V718.716V712.631V706.547V700.457V694.373V688.284V682.199V676.11V670.025V663.94V657.851V651.767V645.678V639.593V633.508V627.419V621.334V615.245V609.161V603.076V596.987V590.902V584.813V578.728V572.639V566.555V560.47V554.381V548.296V542.207V536.122V530.038V523.948V517.864V511.775V505.69V499.601V493.516V487.432V481.342V475.258V469.169V463.084V456.999V450.91V444.825V438.737V432.651V426.563V420.478V414.391V408.305V402.218V396.132V390.046V383.959V377.873V371.786V365.699V359.613V353.527V347.44V341.354V335.267V329.18V323.094V317.007V310.921V304.834V298.748V292.661V286.575V280.49V274.4V268.316V262.231V256.142V250.057V243.968V237.883V231.794V225.709V219.624V213.535V207.45V201.361V195.276V189.192V183.103V177.018V170.933V164.844V158.759V152.67V146.585V140.5V134.411V128.327V122.237V116.153V110.063V103.979V97.8939V91.8047V85.72V79.6352V73.546V67.4613V61.3721V55.2873V49.2026V43.1134V37.0287V30.9394V24.8547V18.77V12.6808V6.59605V0.506882V-5.57796V-11.6627V-17.7519V-23.8366H306.722H306.769H306.815H306.862H306.909H306.956H307.003H307.049H307.096H307.143H307.189H307.236H307.282H307.329H307.376H307.422H307.469H307.516H307.563H307.61H307.656H307.703H307.75H307.796H307.843H307.889H307.936H307.983H308.029H308.077H308.123H308.17H308.216H308.263H308.31H308.356H308.403H308.45H308.496H308.543H308.59H308.637H308.684H308.73H308.777H308.823H308.87H308.917H308.963H309.01H309.057H309.103H309.15H309.197H309.244H309.29H309.337H309.384H309.43H309.477H309.524H309.57H309.617H309.664H309.71H309.757H309.804H309.85H309.897H309.944H309.991H310.037H310.084H310.131H310.177H310.224H310.27H310.317H310.364H310.411H310.457H310.504H310.551H310.597H310.644H310.69H310.738H310.784H310.831H310.878H310.924H310.971H311.018H311.064H311.111H311.157H311.204H311.251H311.297H311.344H311.391H311.438H311.485H311.531H311.578H311.624H311.671H311.718H311.764H311.811H311.858H311.904H311.952H311.998H312.045H312.092H312.138H312.185H312.231H312.278H312.325H312.371H312.418H312.465H312.511H312.558H312.605H312.652V-17.7519V-11.6627V-5.57796V0.506882V6.59605V12.6808V18.77V24.8547V30.9394V37.0287V43.1134V49.2026V55.2873V61.3721V67.4613V73.546V79.6352V85.72V91.8047V97.8939V103.979V110.063V116.153V122.237V128.327V134.411V140.5V146.585V152.67V158.759V164.844V170.933V177.018V183.103V189.192V195.276V201.361V207.45V213.535V219.624V225.709V231.794V237.883V243.968V250.057V256.142V262.231V268.316V274.4V280.49V286.575V292.661V298.748V304.834V310.921V317.007V323.094V329.18V335.267V341.354V347.44V353.527V359.613V365.699V371.786V377.873V383.959V390.046V396.132V402.218V408.305V414.391V420.478V426.563V432.651V438.737V444.825V450.91V456.999V463.084V469.169V475.258V481.342V487.432V493.516V499.601V505.69V511.775V517.864V523.948V530.038V536.122V542.207V548.296V554.381V560.47V566.555V572.639V578.728V584.813V590.902V596.987V603.076V609.161V615.245V621.334V627.419V633.508V639.593V645.678V651.767V657.851V663.94V670.025V676.11V682.199V688.284V694.373V700.457V706.547V712.631V718.716V724.805V730.89V736.979V743.063V749.148V755.237Z" fill="#315AA6" fill-opacity="0.3"/>
<path d="M247.941 755.237H247.894H247.847H247.801H247.754H247.707H247.661H247.614H247.567H247.521H247.474H247.427H247.381H247.334H247.287H247.24H247.194H247.147H247.1H247.054H247.007H246.96H246.914H246.867H246.821H246.774H246.727H246.68H246.633H246.587H246.54H246.493H246.447H246.4H246.354H246.307H246.26H246.214H246.167H246.12H246.074H246.026H245.98H245.933H245.887H245.84H245.793H245.747H245.7H245.653H245.606H245.56H245.513H245.467H245.419H245.373H245.327H245.28H245.233H245.186H245.14H245.093H245.046H244.999H244.953H244.906H244.86H244.813H244.766H244.72H244.673H244.626H244.579H244.533H244.486H244.439H244.393H244.346H244.299H244.253H244.206H244.159H244.113H244.066H244.019H243.973H243.926H243.879H243.832H243.786H243.739H243.692H243.646H243.599H243.552H243.506H243.459H243.413H243.365H243.319H243.272H243.225H243.179H243.132H243.085H243.039H242.992H242.946H242.899H242.852H242.805H242.758H242.712H242.665H242.618H242.572H242.525H242.478H242.432H242.385H242.339H242.292H242.245H242.198H242.151H242.105H242.058H242.012H241.965V749.148V743.063V736.979V730.89V724.805V718.716V712.631V706.547V700.457V694.373V688.284V682.199V676.11V670.025V663.94V657.851V651.767V645.678V639.593V633.508V627.419V621.334V615.245V609.161V603.076V596.987V590.902V584.813V578.728V572.639V566.555V560.47V554.381V548.296V542.207V536.122V530.038V523.948V517.864V511.775V505.69V499.601V493.516V487.432V481.342V475.258V469.169V463.084V456.999V450.91V444.825V438.737V432.651V426.563V420.478V414.391V408.305V402.218V396.132V390.046V383.959V377.873V371.786V365.699V359.613V353.527V347.44V341.354V335.267V329.18V323.094V317.007V310.921V304.834V298.748V292.661V286.575V280.49V274.4V268.316V262.231V256.142V250.057V243.968V237.883V231.794V225.709V219.624V213.535V207.45V201.361V195.276V189.192V183.103V177.018V170.933V164.844V158.759V152.67V146.585V140.5V134.411V128.327V122.237V116.153V110.063V103.979V97.8939V91.8047V85.72V79.6352V73.546V67.4613V61.3721V55.2873V49.2026V43.1134V37.0287V30.9394V24.8547V18.77V12.6808V6.59605V0.506882V-5.57796V-11.6627V-17.7519V-23.8366H242.012H242.058H242.105H242.151H242.198H242.245H242.292H242.339H242.385H242.432H242.478H242.525H242.572H242.618H242.665H242.712H242.758H242.805H242.852H242.899H242.946H242.992H243.039H243.085H243.132H243.179H243.225H243.272H243.319H243.365H243.413H243.459H243.506H243.552H243.599H243.646H243.692H243.739H243.786H243.832H243.879H243.926H243.973H244.019H244.066H244.113H244.159H244.206H244.253H244.299H244.346H244.393H244.439H244.486H244.533H244.579H244.626H244.673H244.72H244.766H244.813H244.86H244.906H244.953H244.999H245.046H245.093H245.14H245.186H245.233H245.28H245.327H245.373H245.419H245.467H245.513H245.56H245.606H245.653H245.7H245.747H245.793H245.84H245.887H245.933H245.98H246.026H246.074H246.12H246.167H246.214H246.26H246.307H246.354H246.4H246.447H246.493H246.54H246.587H246.633H246.68H246.727H246.774H246.821H246.867H246.914H246.96H247.007H247.054H247.1H247.147H247.194H247.24H247.287H247.334H247.381H247.427H247.474H247.521H247.567H247.614H247.661H247.707H247.754H247.801H247.847H247.894H247.941V-17.7519V-11.6627V-5.57796V0.506882V6.59605V12.6808V18.77V24.8547V30.9394V37.0287V43.1134V49.2026V55.2873V61.3721V67.4613V73.546V79.6352V85.72V91.8047V97.8939V103.979V110.063V116.153V122.237V128.327V134.411V140.5V146.585V152.67V158.759V164.844V170.933V177.018V183.103V189.192V195.276V201.361V207.45V213.535V219.624V225.709V231.794V237.883V243.968V250.057V256.142V262.231V268.316V274.4V280.49V286.575V292.661V298.748V304.834V310.921V317.007V323.094V329.18V335.267V341.354V347.44V353.527V359.613V365.699V371.786V377.873V383.959V390.046V396.132V402.218V408.305V414.391V420.478V426.563V432.651V438.737V444.825V450.91V456.999V463.084V469.169V475.258V481.342V487.432V493.516V499.601V505.69V511.775V517.864V523.948V530.038V536.122V542.207V548.296V554.381V560.47V566.555V572.639V578.728V584.813V590.902V596.987V603.076V609.161V615.245V621.334V627.419V633.508V639.593V645.678V651.767V657.851V663.94V670.025V676.11V682.199V688.284V694.373V700.457V706.547V712.631V718.716V724.805V730.89V736.979V743.063V749.148V755.237Z" fill="#315AA6" fill-opacity="0.3"/>
<path d="M183.231 755.237H183.185H183.138H183.091H183.045H182.998H182.951H182.905H182.858H182.811H182.764H182.718H182.671H182.624H182.578H182.531H182.484H182.438H182.391H182.345H182.297H182.251H182.204H182.157H182.111H182.064H182.017H181.971H181.924H181.878H181.831H181.784H181.738H181.69H181.644H181.597H181.55H181.504H181.457H181.411H181.364H181.317H181.271H181.224H181.177H181.131H181.083H181.037H180.99H180.944H180.897H180.85H180.804H180.757H180.71H180.664H180.617H180.57H180.523H180.477H180.43H180.383H180.337H180.29H180.243H180.197H180.15H180.103H180.057H180.01H179.964H179.916H179.87H179.823H179.777H179.73H179.683H179.636H179.59H179.543H179.496H179.45H179.403H179.357H179.31H179.263H179.216H179.17H179.123H179.076H179.029H178.983H178.937H178.89H178.843H178.796H178.75H178.703H178.656H178.609H178.563H178.516H178.47H178.422H178.376H178.33H178.283H178.236H178.19H178.142H178.096H178.049H178.003H177.956H177.909H177.863H177.816H177.769H177.723H177.676H177.629H177.583H177.536H177.489H177.442H177.396H177.349H177.302H177.256V749.148V743.063V736.979V730.89V724.805V718.716V712.631V706.547V700.457V694.373V688.284V682.199V676.11V670.025V663.94V657.851V651.767V645.678V639.593V633.508V627.419V621.334V615.245V609.161V603.076V596.987V590.902V584.813V578.728V572.639V566.555V560.47V554.381V548.296V542.207V536.122V530.038V523.948V517.864V511.775V505.69V499.601V493.516V487.432V481.342V475.258V469.169V463.084V456.999V450.91V444.825V438.737V432.651V426.563V420.478V414.391V408.305V402.218V396.132V390.046V383.959V377.873V371.786V365.699V359.613V353.527V347.44V341.354V335.267V329.18V323.094V317.007V310.921V304.834V298.748V292.661V286.575V280.49V274.4V268.316V262.231V256.142V250.057V243.968V237.883V231.794V225.709V219.624V213.535V207.45V201.361V195.276V189.192V183.103V177.018V170.933V164.844V158.759V152.67V146.585V140.5V134.411V128.327V122.237V116.153V110.063V103.979V97.8939V91.8047V85.72V79.6352V73.546V67.4613V61.3721V55.2873V49.2026V43.1134V37.0287V30.9394V24.8547V18.77V12.6808V6.59605V0.506882V-5.57796V-11.6627V-17.7519V-23.8366H177.302H177.349H177.396H177.442H177.489H177.536H177.583H177.629H177.676H177.723H177.769H177.816H177.863H177.909H177.956H178.003H178.049H178.096H178.142H178.19H178.236H178.283H178.33H178.376H178.422H178.47H178.516H178.563H178.609H178.656H178.703H178.75H178.796H178.843H178.89H178.937H178.983H179.029H179.076H179.123H179.17H179.216H179.263H179.31H179.357H179.403H179.45H179.496H179.543H179.59H179.636H179.683H179.73H179.777H179.823H179.87H179.916H179.964H180.01H180.057H180.103H180.15H180.197H180.243H180.29H180.337H180.383H180.43H180.477H180.523H180.57H180.617H180.664H180.71H180.757H180.804H180.85H180.897H180.944H180.99H181.037H181.083H181.131H181.177H181.224H181.271H181.317H181.364H181.411H181.457H181.504H181.55H181.597H181.644H181.69H181.738H181.784H181.831H181.878H181.924H181.971H182.017H182.064H182.111H182.157H182.204H182.251H182.297H182.345H182.391H182.438H182.484H182.531H182.578H182.624H182.671H182.718H182.764H182.811H182.858H182.905H182.951H182.998H183.045H183.091H183.138H183.185H183.231V-17.7519V-11.6627V-5.57796V0.506882V6.59605V12.6808V18.77V24.8547V30.9394V37.0287V43.1134V49.2026V55.2873V61.3721V67.4613V73.546V79.6352V85.72V91.8047V97.8939V103.979V110.063V116.153V122.237V128.327V134.411V140.5V146.585V152.67V158.759V164.844V170.933V177.018V183.103V189.192V195.276V201.361V207.45V213.535V219.624V225.709V231.794V237.883V243.968V250.057V256.142V262.231V268.316V274.4V280.49V286.575V292.661V298.748V304.834V310.921V317.007V323.094V329.18V335.267V341.354V347.44V353.527V359.613V365.699V371.786V377.873V383.959V390.046V396.132V402.218V408.305V414.391V420.478V426.563V432.651V438.737V444.825V450.91V456.999V463.084V469.169V475.258V481.342V487.432V493.516V499.601V505.69V511.775V517.864V523.948V530.038V536.122V542.207V548.296V554.381V560.47V566.555V572.639V578.728V584.813V590.902V596.987V603.076V609.161V615.245V621.334V627.419V633.508V639.593V645.678V651.767V657.851V663.94V670.025V676.11V682.199V688.284V694.373V700.457V706.547V712.631V718.716V724.805V730.89V736.979V743.063V749.148V755.237Z" fill="#315AA6" fill-opacity="0.3"/>
<path d="M118.521 755.237H118.474H118.427H118.381H118.334H118.287H118.241H118.194H118.147H118.1H118.054H118.007H117.96H117.914H117.867H117.82H117.774H117.727H117.68H117.633H117.587H117.54H117.493H117.447H117.4H117.353H117.307H117.26H117.213H117.167H117.12H117.074H117.026H116.98H116.933H116.886H116.84H116.793H116.746H116.7H116.653H116.607H116.56H116.513H116.467H116.419H116.373H116.326H116.279H116.233H116.186H116.14H116.093H116.046H116H115.953H115.906H115.859H115.812H115.766H115.719H115.673H115.626H115.579H115.533H115.486H115.439H115.393H115.346H115.299H115.252H115.206H115.159H115.113H115.066H115.019H114.972H114.926H114.879H114.832H114.786H114.739H114.693H114.645H114.599H114.552H114.506H114.459H114.412H114.365H114.319H114.272H114.225H114.179H114.132H114.086H114.039H113.992H113.945H113.899H113.852H113.805H113.758H113.712H113.666H113.619H113.572H113.525H113.478H113.432H113.385H113.338H113.292H113.245H113.199H113.152H113.105H113.059H113.012H112.965H112.919H112.871H112.825H112.778H112.732H112.685H112.638H112.592H112.545V749.148V743.063V736.979V730.89V724.805V718.716V712.631V706.547V700.457V694.373V688.284V682.199V676.11V670.025V663.94V657.851V651.767V645.678V639.593V633.508V627.419V621.334V615.245V609.161V603.076V596.987V590.902V584.813V578.728V572.639V566.555V560.47V554.381V548.296V542.207V536.122V530.038V523.948V517.864V511.775V505.69V499.601V493.516V487.432V481.342V475.258V469.169V463.084V456.999V450.91V444.825V438.737V432.651V426.563V420.478V414.391V408.305V402.218V396.132V390.046V383.959V377.873V371.786V365.699V359.613V353.527V347.44V341.354V335.267V329.18V323.094V317.007V310.921V304.834V298.748V292.661V286.575V280.49V274.4V268.316V262.231V256.142V250.057V243.968V237.883V231.794V225.709V219.624V213.535V207.45V201.361V195.276V189.192V183.103V177.018V170.933V164.844V158.759V152.67V146.585V140.5V134.411V128.327V122.237V116.153V110.063V103.979V97.8939V91.8047V85.72V79.6352V73.546V67.4613V61.3721V55.2873V49.2026V43.1134V37.0287V30.9394V24.8547V18.77V12.6808V6.59605V0.506882V-5.57796V-11.6627V-17.7519V-23.8366H112.592H112.638H112.685H112.732H112.778H112.825H112.871H112.919H112.965H113.012H113.059H113.105H113.152H113.199H113.245H113.292H113.338H113.385H113.432H113.478H113.525H113.572H113.619H113.666H113.712H113.758H113.805H113.852H113.899H113.945H113.992H114.039H114.086H114.132H114.179H114.225H114.272H114.319H114.365H114.412H114.459H114.506H114.552H114.599H114.645H114.693H114.739H114.786H114.832H114.879H114.926H114.972H115.019H115.066H115.113H115.159H115.206H115.252H115.299H115.346H115.393H115.439H115.486H115.533H115.579H115.626H115.673H115.719H115.766H115.812H115.859H115.906H115.953H116H116.046H116.093H116.14H116.186H116.233H116.279H116.326H116.373H116.419H116.467H116.513H116.56H116.607H116.653H116.7H116.746H116.793H116.84H116.886H116.933H116.98H117.026H117.074H117.12H117.167H117.213H117.26H117.307H117.353H117.4H117.447H117.493H117.54H117.587H117.633H117.68H117.727H117.774H117.82H117.867H117.914H117.96H118.007H118.054H118.1H118.147H118.194H118.241H118.287H118.334H118.381H118.427H118.474H118.521V-17.7519V-11.6627V-5.57796V0.506882V6.59605V12.6808V18.77V24.8547V30.9394V37.0287V43.1134V49.2026V55.2873V61.3721V67.4613V73.546V79.6352V85.72V91.8047V97.8939V103.979V110.063V116.153V122.237V128.327V134.411V140.5V146.585V152.67V158.759V164.844V170.933V177.018V183.103V189.192V195.276V201.361V207.45V213.535V219.624V225.709V231.794V237.883V243.968V250.057V256.142V262.231V268.316V274.4V280.49V286.575V292.661V298.748V304.834V310.921V317.007V323.094V329.18V335.267V341.354V347.44V353.527V359.613V365.699V371.786V377.873V383.959V390.046V396.132V402.218V408.305V414.391V420.478V426.563V432.651V438.737V444.825V450.91V456.999V463.084V469.169V475.258V481.342V487.432V493.516V499.601V505.69V511.775V517.864V523.948V530.038V536.122V542.207V548.296V554.381V560.47V566.555V572.639V578.728V584.813V590.902V596.987V603.076V609.161V615.245V621.334V627.419V633.508V639.593V645.678V651.767V657.851V663.94V670.025V676.11V682.199V688.284V694.373V700.457V706.547V712.631V718.716V724.805V730.89V736.979V743.063V749.148V755.237Z" fill="#315AA6" fill-opacity="0.3"/>
<path d="M53.8115 755.237H53.7644H53.7182H53.6715H53.6249H53.5782H53.5311H53.4844H53.4378H53.3911H53.3445H53.2978H53.2512H53.2045H53.1579H53.1112H53.0646H53.0179H52.9708H52.9241H52.8775H52.8308H52.7842H52.7375H52.6909H52.6442H52.5976H52.5509H52.5043H52.4576H52.411H52.3638H52.3172H52.2705H52.2239H52.1772H52.1306H52.0839H52.0373H51.9906H51.944H51.8973H51.8507H51.804H51.7569H51.7102H51.6636H51.6169H51.5703H51.5236H51.477H51.4303H51.3837H51.337H51.2904H51.2437H51.1971H51.1499H51.1033H51.0566H51.01H50.9633H50.9167H50.87H50.8234H50.7767H50.7301H50.6834H50.6368H50.5901H50.543H50.4963H50.4497H50.403H50.3564H50.3097H50.2631H50.2164H50.1698H50.1231H50.0765H50.0298H49.9827H49.936H49.8894H49.8427H49.7961H49.7494H49.7028H49.6561H49.6094H49.5628H49.5161H49.4695H49.4228H49.3757H49.3291H49.2824H49.2357H49.1891H49.1424H49.096H49.0493H49.0027H48.956H48.9094H48.8627H48.816H48.7689H48.7223H48.6756H48.6291H48.5823H48.5356H48.4891H48.4423H48.3958H48.3491H48.3025H48.2558H48.2092H48.162H48.1154H48.0687H48.0221H47.9754H47.9289H47.8821H47.8356V749.148V743.063V736.979V730.89V724.805V718.716V712.631V706.547V700.457V694.373V688.284V682.199V676.11V670.025V663.94V657.851V651.767V645.678V639.593V633.508V627.419V621.334V615.245V609.161V603.076V596.987V590.902V584.813V578.728V572.639V566.555V560.47V554.381V548.296V542.207V536.122V530.038V523.948V517.864V511.775V505.69V499.601V493.516V487.432V481.342V475.258V469.169V463.084V456.999V450.91V444.825V438.737V432.651V426.563V420.478V414.391V408.305V402.218V396.132V390.046V383.959V377.873V371.786V365.699V359.613V353.527V347.44V341.354V335.267V329.18V323.094V317.007V310.921V304.834V298.748V292.661V286.575V280.49V274.4V268.316V262.231V256.142V250.057V243.968V237.883V231.794V225.709V219.624V213.535V207.45V201.361V195.276V189.192V183.103V177.018V170.933V164.844V158.759V152.67V146.585V140.5V134.411V128.327V122.237V116.153V110.063V103.979V97.8939V91.8047V85.72V79.6352V73.546V67.4613V61.3721V55.2873V49.2026V43.1134V37.0287V30.9394V24.8547V18.77V12.6808V6.59605V0.506882V-5.57796V-11.6627V-17.7519V-23.8366H47.8821H47.9289H47.9754H48.0221H48.0687H48.1154H48.162H48.2092H48.2558H48.3025H48.3491H48.3958H48.4423H48.4891H48.5356H48.5823H48.6291H48.6756H48.7223H48.7689H48.816H48.8627H48.9094H48.956H49.0027H49.0493H49.096H49.1424H49.1891H49.2357H49.2824H49.3291H49.3757H49.4228H49.4695H49.5161H49.5628H49.6094H49.6561H49.7028H49.7494H49.7961H49.8427H49.8894H49.936H49.9827H50.0298H50.0765H50.1231H50.1698H50.2164H50.2631H50.3097H50.3564H50.403H50.4497H50.4963H50.543H50.5901H50.6368H50.6834H50.7301H50.7767H50.8234H50.87H50.9167H50.9633H51.01H51.0566H51.1033H51.1499H51.1971H51.2437H51.2904H51.337H51.3837H51.4303H51.477H51.5236H51.5703H51.6169H51.6636H51.7102H51.7569H51.804H51.8507H51.8973H51.944H51.9906H52.0373H52.0839H52.1306H52.1772H52.2239H52.2705H52.3172H52.3638H52.411H52.4576H52.5043H52.5509H52.5976H52.6442H52.6909H52.7375H52.7842H52.8308H52.8775H52.9241H52.9708H53.0179H53.0646H53.1112H53.1579H53.2045H53.2512H53.2978H53.3445H53.3911H53.4378H53.4844H53.5311H53.5782H53.6249H53.6715H53.7182H53.7644H53.8115V-17.7519V-11.6627V-5.57796V0.506882V6.59605V12.6808V18.77V24.8547V30.9394V37.0287V43.1134V49.2026V55.2873V61.3721V67.4613V73.546V79.6352V85.72V91.8047V97.8939V103.979V110.063V116.153V122.237V128.327V134.411V140.5V146.585V152.67V158.759V164.844V170.933V177.018V183.103V189.192V195.276V201.361V207.45V213.535V219.624V225.709V231.794V237.883V243.968V250.057V256.142V262.231V268.316V274.4V280.49V286.575V292.661V298.748V304.834V310.921V317.007V323.094V329.18V335.267V341.354V347.44V353.527V359.613V365.699V371.786V377.873V383.959V390.046V396.132V402.218V408.305V414.391V420.478V426.563V432.651V438.737V444.825V450.91V456.999V463.084V469.169V475.258V481.342V487.432V493.516V499.601V505.69V511.775V517.864V523.948V530.038V536.122V542.207V548.296V554.381V560.47V566.555V572.639V578.728V584.813V590.902V596.987V603.076V609.161V615.245V621.334V627.419V633.508V639.593V645.678V651.767V657.851V663.94V670.025V676.11V682.199V688.284V694.373V700.457V706.547V712.631V718.716V724.805V730.89V736.979V743.063V749.148V755.237Z" fill="#315AA6" fill-opacity="0.3"/>
</g>
</g>
<defs>
<clipPath id="clip0_119_602">
<rect width="1200" height="737" fill="white"/>
</clipPath>
</defs>
</svg>
